<svg width="420" height="369" viewBox="0 0 420 369" fill="none" xmlns="http://www.w3.org/2000/svg">
<path d="M144.624 347.206C188.122 139.395 290.478 0.68997 392.803 53.1424" stroke="#655028" stroke-width="10"/>
<path d="M154.869 267.839C150.092 278.396 73.574 248.409 47.3972 233.695C21.2203 218.982 3.87244 198.496 8.64957 187.939C13.4267 177.382 38.5198 180.752 64.6967 195.465C90.8735 210.178 159.646 257.282 154.869 267.839Z" fill="#487A0A"/>
<path d="M172.023 224.16C167.276 233.736 101.232 205.359 78.8626 191.585C56.4927 177.81 42.2067 158.88 46.9539 149.304C51.701 139.728 73.6837 143.132 96.0535 156.907C118.423 170.681 176.77 214.584 172.023 224.16Z" fill="#78B72B"/>
<path d="M185.939 189.105C181.417 196.664 128.212 167.864 110.441 154.658C92.6694 141.452 81.9287 124.619 86.4506 117.061C90.9725 109.502 109.045 114.08 126.816 127.286C144.587 140.492 190.46 181.547 185.939 189.105Z" fill="#64A622"/>
<path d="M198.508 158.09C193.822 164.856 148.454 136.442 133.599 123.66C118.743 110.879 110.499 95.0329 115.186 88.2667C119.873 81.5005 135.715 86.3766 150.57 99.1578C165.426 111.939 203.195 151.323 198.508 158.09Z" fill="#699039"/>
<path d="M213.932 132.664C209.706 137.492 175.295 109.348 164.267 97.3597C153.239 85.3714 147.725 71.739 151.95 66.9108C156.176 62.0827 168.541 67.8871 179.569 79.8754C190.597 91.8638 218.157 127.836 213.932 132.664Z" fill="#7BAB41"/>
<path d="M227.95 109.893C224.147 113.278 197.894 85.1939 189.689 73.7444C181.483 62.295 177.915 50.2687 181.718 46.8831C185.521 43.4975 195.256 50.0346 203.462 61.484C211.667 72.9335 231.753 106.507 227.95 109.893Z" fill="#8EBE53"/>
<path d="M243.602 93.3763C239.932 95.7387 222.23 70.8645 217.094 60.9518C211.958 51.0391 210.769 41.0882 214.44 38.7258C218.11 36.3634 225.25 42.4841 230.386 52.3968C235.522 62.3095 247.273 91.0139 243.602 93.3763Z" fill="#719B3C"/>
<path d="M256.053 76.8029C252.599 78.5565 240.341 58.6026 237.111 50.7014C233.881 42.8002 234.062 34.9733 237.516 33.2197C240.969 31.466 246.387 36.4496 249.618 44.3508C252.848 52.2521 259.506 75.0492 256.053 76.8029Z" fill="#9EC76D"/>
<path d="M270.824 66.0065C267.809 67.0994 259.326 49.2658 257.315 42.3742C255.304 35.4827 256.118 29.01 259.133 27.9172C262.148 26.8244 266.223 31.5252 268.234 38.4168C270.245 45.3083 273.839 64.9137 270.824 66.0065Z" fill="#99B973"/>
<path d="M286.518 52.8742C283.809 53.8703 276.723 39.9109 275.111 34.4661C273.498 29.0212 274.387 23.7997 277.096 22.8036C279.804 21.8075 283.307 25.4139 284.919 30.8588C286.531 36.3037 289.226 51.8781 286.518 52.8742Z" fill="#92B961"/>
<path d="M356.103 32.8347C354.034 32.1775 356.144 18.9196 357.655 14.3229C359.165 9.72625 362.067 6.5327 364.136 7.1899C366.204 7.84711 366.657 12.1062 365.146 16.7029C363.636 21.2995 358.172 33.492 356.103 32.8347Z" fill="#8EBA56"/>
<path d="M378.515 36.2734C376.742 35.0201 382.772 23.0253 385.604 19.1026C388.437 15.18 392.17 13.016 393.942 14.2693C395.714 15.5226 394.855 19.7185 392.022 23.6412C389.189 27.5638 380.287 37.5267 378.515 36.2734Z" fill="#7DA04F"/>
<path d="M319.265 56.0174C321.199 55.0313 329.013 65.9472 331.169 70.2792C333.324 74.6111 333.503 78.9222 331.57 79.9082C329.636 80.8943 326.321 78.1819 324.166 73.8499C322.011 69.5179 317.331 57.0034 319.265 56.0174Z" fill="#739D42"/>
<path d="M334.4 50.2849C336.477 49.6113 342.708 62.3113 344.235 67.1816C345.762 72.0518 345.317 76.546 343.241 77.2196C341.165 77.8932 338.244 74.4911 336.716 69.6209C335.189 64.7506 332.324 50.9585 334.4 50.2849Z" fill="#71AC43"/>
<path d="M360.28 50.6619C362.282 49.824 369.254 61.2964 371.078 65.7781C372.901 70.2598 372.756 74.5722 370.754 75.4101C368.752 76.248 365.65 73.2941 363.827 68.8124C362.003 64.3307 358.277 51.4998 360.28 50.6619Z" fill="#7AA03B"/>
<path d="M387.884 40.4809C389.034 42.3217 401.353 36.9862 405.431 34.3818C409.509 31.7774 411.882 28.1738 410.732 26.333C409.581 24.4923 405.343 25.1113 401.266 27.7157C397.188 30.3201 386.734 38.6401 387.884 40.4809Z" fill="#849C64"/>
<path d="M378.546 54.9435C380.535 54.0739 387.688 65.4341 389.583 69.8862C391.477 74.3384 391.401 78.6525 389.412 79.5221C387.423 80.3917 384.275 77.4875 382.381 73.0353C380.486 68.5832 376.557 55.8131 378.546 54.9435Z" fill="#7DAC43"/>
<path d="M347.394 49.2829C349.466 48.6361 355.333 60.7107 356.729 65.3434C358.126 69.9761 357.578 74.256 355.506 74.9028C353.434 75.5496 350.622 72.3184 349.226 67.6857C347.83 63.053 345.322 49.9298 347.394 49.2829Z" fill="#91AC43"/>
<path d="M367.282 34.1451C365.33 33.1959 369.334 20.3819 371.493 16.0517C373.652 11.7216 376.984 8.98076 378.936 9.92997C380.888 10.8792 380.721 15.159 378.562 19.4892C376.403 23.8193 369.235 35.0943 367.282 34.1451Z" fill="#92B26A"/>
<path d="M299.516 45.3691C296.915 45.862 292.204 32.238 291.42 27.0958C290.636 21.9536 292.109 17.3854 294.711 16.8925C297.312 16.3996 300.057 20.1686 300.842 25.3108C301.626 30.4531 302.118 44.8762 299.516 45.3691Z" fill="#88B252"/>
<path d="M299.516 45.3691C296.915 45.862 292.204 32.238 291.42 27.0958C290.636 21.9536 292.109 17.3854 294.711 16.8925C297.312 16.3996 300.057 20.1686 300.842 25.3108C301.626 30.4531 302.118 44.8762 299.516 45.3691Z" fill="#95AD33"/>
<path d="M327.25 34.9818C324.603 35.0385 322.207 20.8239 322.282 15.6228C322.357 10.4216 324.564 6.1593 327.211 6.10262C329.859 6.04595 331.944 10.2164 331.869 15.4175C331.793 20.6187 329.898 34.9252 327.25 34.9818Z" fill="#8BA22E"/>
<path d="M343.234 34.1208C340.595 33.905 339.673 19.5194 340.282 14.3536C340.892 9.18769 343.525 5.17483 346.164 5.39059C348.803 5.60634 350.449 9.96902 349.839 15.1349C349.23 20.3008 345.874 34.3366 343.234 34.1208Z" fill="#8BA22E"/>
<path d="M314.516 40.3691C311.915 40.862 307.204 27.238 306.42 22.0958C305.636 16.9536 307.109 12.3854 309.711 11.8925C312.312 11.3996 315.057 15.1686 315.842 20.3108C316.626 25.4531 317.118 39.8762 314.516 40.3691Z" fill="#9FB935"/>
<path d="M272.354 92.9757C270.91 95.4568 289.787 109.773 297.185 114.102C304.583 118.431 311.75 119.929 313.194 117.448C314.638 114.966 309.812 109.446 302.414 105.117C295.016 100.788 273.798 90.4946 272.354 92.9757Z" fill="#92B36C"/>
<path d="M290.739 70.5565C288.771 72.1173 298.278 88.149 302.449 93.4328C306.619 98.7166 311.595 101.735 313.563 100.174C315.531 98.6132 313.745 93.0645 309.575 87.7807C305.404 82.4969 292.707 68.9957 290.739 70.5565Z" fill="#92B36C"/>
<path d="M304.454 61.2609C302.208 62.6411 308.433 77.7905 311.507 82.8175C314.58 87.8444 318.892 90.8007 321.138 89.4205C323.383 88.0403 322.711 82.8462 319.638 77.8193C316.564 72.7924 306.699 59.8807 304.454 61.2609Z" fill="#7E9B5C"/>
<path d="M250.762 114.801C248.865 119.564 276.686 135.836 287.505 140.06C298.325 144.283 308.634 143.846 310.531 139.084C312.428 134.321 305.195 127.036 294.375 122.812C283.555 118.588 252.659 110.039 250.762 114.801Z" fill="#85AE53"/>
<path d="M232.092 141.854C230.533 147.871 269.887 164.5 284.789 168.404C299.692 172.309 313.036 170.597 314.595 164.581C316.155 158.565 305.338 150.523 290.435 146.618C275.533 142.713 233.651 135.838 232.092 141.854Z" fill="#87BB47"/>
<path d="M217.6 171.238C215.785 178.71 263.783 199.592 281.927 204.525C300.071 209.458 316.252 207.401 318.067 199.929C319.882 192.458 306.645 182.402 288.5 177.469C270.356 172.535 219.415 163.767 217.6 171.238Z" fill="#749747"/>
<path d="M199.132 200.191C196.545 208.855 249.633 236.852 269.909 243.952C290.186 251.051 308.721 249.783 311.309 241.12C313.897 232.456 299.557 219.678 279.28 212.578C259.004 205.479 201.72 191.527 199.132 200.191Z" fill="#92C05A"/>
<path d="M185.171 236.996C182.059 247.372 245.505 282.346 269.744 291.374C293.983 300.402 316.155 299.309 319.267 288.933C322.378 278.557 305.251 262.826 281.011 253.798C256.772 244.77 188.282 226.62 185.171 236.996Z" fill="#7DAB42"/>
<path d="M171.284 277.128C167.185 288.033 237.347 333.391 264.388 346.015C291.43 358.638 316.673 360.03 320.772 349.125C324.87 338.219 306.272 319.145 279.23 306.522C252.189 293.899 175.382 266.222 171.284 277.128Z" fill="#658C35"/>
</svg>
