<svg width="564" height="335" viewBox="0 0 564 335" fill="none" xmlns="http://www.w3.org/2000/svg">
<ellipse cx="243" cy="96.5" rx="58" ry="58.5" fill="#F2C757"/>
<path d="M281.45 96.7173C281.45 129.146 230.808 164.97 242.852 155.435C274.966 155.435 301 129.146 301 96.7173C301 64.2886 274.966 38 242.852 38C250.859 42.517 281.45 64.2886 281.45 96.7173Z" fill="#F4B91F"/>
<path d="M189.238 19.8228C189.079 18.2044 190.815 17.0822 192.225 17.8922L213.079 29.8713C214.377 30.617 214.425 32.4724 213.168 33.2851L194.676 45.2394C193.418 46.0522 191.746 45.2461 191.599 43.7561L189.238 19.8228Z" fill="#F4921F"/>
<path d="M309.951 159.72C310.493 161.253 309.075 162.758 307.512 162.308L284.4 155.66C282.961 155.246 282.47 153.456 283.497 152.366L298.597 136.339C299.624 135.249 301.44 135.632 301.938 137.044L309.951 159.72Z" fill="#F4921F"/>
<path d="M311.095 97.534C311.395 95.9357 313.376 95.3448 314.502 96.5174L331.165 113.859C332.202 114.939 331.729 116.733 330.295 117.161L309.194 123.456C307.759 123.884 306.38 122.642 306.656 121.17L311.095 97.534Z" fill="#F4921F"/>
<path d="M327.126 58.6112C328.746 58.7515 329.53 60.6642 328.475 61.9016L312.869 80.1998C311.897 81.3389 310.064 81.0459 309.496 79.6607L301.143 59.2868C300.575 57.9015 301.674 56.4063 303.166 56.5355L327.126 58.6112Z" fill="#F4921F"/>
<path d="M297.091 19.2482C298.6 18.6427 300.163 19.996 299.779 21.5763L294.104 44.9467C293.75 46.4016 291.983 46.9667 290.851 45.9866L274.206 31.5708C273.074 30.5907 273.381 28.7603 274.77 28.2028L297.091 19.2482Z" fill="#F4921F"/>
<path d="M269.021 185.49C268.776 187.098 266.817 187.757 265.65 186.624L248.397 169.869C247.323 168.826 247.734 167.016 249.153 166.539L270.024 159.518C271.443 159.04 272.864 160.234 272.638 161.714L269.021 185.49Z" fill="#F4921F"/>
<path d="M213.769 184.345C212.575 185.449 210.632 184.744 210.426 183.131L207.377 159.275C207.187 157.79 208.637 156.631 210.044 157.142L230.741 164.659C232.148 165.17 232.515 166.99 231.417 168.007L213.769 184.345Z" fill="#F4921F"/>
<path d="M172.406 161.58C170.821 161.941 169.49 160.358 170.118 158.858L179.397 136.671C179.974 135.289 181.809 135.009 182.773 136.155L196.944 153.009C197.908 154.154 197.317 155.914 195.857 156.246L172.406 161.58Z" fill="#F4921F"/>
<path d="M150.355 107.765C148.958 108.597 149.086 110.66 150.575 111.314L172.595 120.983C173.966 121.585 175.488 120.523 175.395 119.029L174.036 97.0506C173.944 95.5563 172.302 94.6896 171.016 95.4559L150.355 107.765Z" fill="#F4921F"/>
<path d="M156.456 60.9837C155.471 59.6892 156.361 57.8235 157.987 57.7741L182.025 57.0434C183.522 56.9979 184.536 58.5524 183.891 59.9037L174.41 79.7778C173.765 81.1291 171.919 81.319 171.013 80.1272L156.456 60.9837Z" fill="#F4921F"/>
<path d="M241.722 4.45308C242.466 3.00722 244.534 3.00722 245.278 4.45308L256.288 25.8344C256.973 27.1654 256.007 28.75 254.51 28.75H232.49C230.993 28.75 230.027 27.1654 230.712 25.8344L241.722 4.45308Z" fill="#F4921F"/>
<line y1="-0.5" x2="8.35952" y2="-0.5" transform="matrix(0.893914 0.448239 0.628294 -0.777976 314.33 131.018)" stroke="black"/>
<line y1="-0.5" x2="11.9708" y2="-0.5" transform="matrix(-0.825027 0.565093 -0.740898 -0.671618 331 128)" stroke="black"/>
<line y1="-0.5" x2="11.1595" y2="-0.5" transform="matrix(-0.621092 0.783738 -0.897266 -0.441491 313.789 131.018)" stroke="black"/>
<line y1="-0.5" x2="11.3854" y2="-0.5" transform="matrix(0.688641 0.725102 0.861394 -0.507938 259.304 131.553)" stroke="black"/>
<line y1="-0.5" x2="6.6777" y2="-0.5" transform="matrix(-0.970653 0.240485 -0.370615 -0.928786 249.482 131.553)" stroke="black"/>
<line y1="-0.5" x2="10.4168" y2="-0.5" transform="matrix(0.230567 0.973056 0.98935 -0.145555 249.795 131.683)" stroke="black"/>
<line y1="-0.5" x2="12.8929" y2="-0.5" transform="matrix(-0.612796 0.790241 -0.901004 -0.43381 259.022 131.812)" stroke="black"/>
<line y1="-0.5" x2="11.234" y2="-0.5" transform="matrix(-0.644612 0.76451 -0.885938 -0.463804 273.339 131.553)" stroke="black"/>
<line y1="-0.5" x2="8.48839" y2="-0.5" transform="matrix(0.720282 0.693682 -0.840473 0.541853 273.57 131.553)" stroke="black"/>
<line y1="-0.5" x2="6.67549" y2="-0.5" transform="matrix(-0.76712 0.641504 -0.802893 -0.596123 284.805 133.159)" stroke="black"/>
<line y1="-0.5" x2="9.68815" y2="-0.5" transform="matrix(0.809055 0.587733 -0.760173 0.64972 285.119 133.694)" stroke="black"/>
<line y1="-0.5" x2="11.4052" y2="-0.5" transform="matrix(-0.694078 0.7199 -0.858015 -0.513625 300.508 131.018)" stroke="black"/>
<line y1="-0.5" x2="11.2116" y2="-0.5" transform="matrix(0.637688 0.770295 0.88939 -0.45715 300.357 130.947)" stroke="black"/>
<path d="M321.571 134.632L329.036 129.474L325.893 126.895L323.929 126.158L323.143 125.79L322.75 125.421L321.571 123.947L317.643 119.158L312.929 113.263L309.393 109.211L307.429 107.368L305.464 106.263L303.5 105.158L302.321 104.79L301.536 104.421H299.964H299.179H298H297.214L296.036 104.053L295.25 103.684L293.679 102.211L291.714 100L289.357 98.1579L286.214 95.9474L285.429 95.579H284.643H283.857L282.679 97.0527L281.893 97.4211L281.107 97.7895L280.714 98.1579L279.143 101.105L278.357 102.211L277.964 102.579L277.571 102.947L277.179 103.316L276.393 104.053L275.607 104.79L274.821 105.526L274.036 106.263L272.857 107L271.679 107.368L270.893 107.737L268.536 109.947L265.786 112.895L264.214 114.368L261.857 116.947L259.5 119.895L257.929 121.737L256.75 122.842L255.964 123.579L254.786 124.684L253.214 125.79L251.25 126.895L248.107 129.105L245.75 132.421L249.286 131.316L252.036 140.895L259.107 131.316L266.571 139.421L273.643 130.947L280.714 137.579L285.429 133.526L293.286 139.053L300.357 131.316L307.429 139.421L314.107 131.316L321.571 134.632Z" fill="#F7F7F7" stroke="black"/>
<path d="M92.7603 191.118L90 193L493 192.624L487.085 192.247L484.325 191.118L482.748 189.988L481.959 189.612L480.776 189.235H479.987L476.833 188.106L471.312 186.224L467.369 185.471H462.637L457.511 183.965L453.568 183.212L447.653 182.459L444.104 180.576L440.555 179.824H439.372L434.64 177.941L431.485 176.812L429.908 176.059L424.782 174.929L420.444 173.424L418.078 173.047L414.529 171.541L409.009 168.529L404.277 165.894L399.939 164.012L395.602 162.506L392.447 161.376L388.898 160.247L385.349 158.741L382.983 157.612H381.012L379.04 156.859L376.674 156.106L375.491 155.353L374.308 154.976L372.731 154.224L371.154 153.094L369.182 152.341L367.21 150.835L366.422 150.082L364.45 149.329L362.873 148.576L361.69 148.2L359.324 147.447L358.141 146.694L357.352 146.318L354.592 144.435L350.649 142.553L347.494 140.671L345.917 140.294L343.945 138.412L342.368 137.659L340.396 136.529L336.453 132.765L333.693 130.506L330.538 129L321.863 135.024L314.371 131.259L307.667 139.918L300.569 132.012L293.472 139.165L285.585 133.894L280.853 137.659L273.755 131.635L266.658 140.294L259.165 132.012L252.068 142.176L249.307 132.012L243.392 133.518L236.689 138.788L226.436 148.953L224.07 150.082H221.704L220.127 151.965L217.367 153.847L212.635 157.988L211.058 159.871L208.692 163.635L207.509 165.518H205.537L209.48 157.988L208.692 157.612L206.326 156.482H203.171L200.017 155.353H184.244L180.695 157.612L173.203 165.141L162.95 169.282L154.669 174.176L144.811 178.694L138.896 180.576H133.376L127.461 181.706L121.152 184.341L115.631 185.094L112.477 186.224H110.111L107.35 186.976L104.59 187.729L100.252 189.988H98.6751H96.3092L92.7603 191.118Z" fill="#E1DDDD" stroke="black"/>
<line y1="-3" x2="402.204" y2="-3" transform="matrix(0.999999 0.00110429 -0.0011988 0.999999 89.6592 193.579)" stroke="#E1DDDD" stroke-width="6"/>
<path d="M286.664 232.016H304.336V283.461H286.664V232.016Z" fill="#96722C"/>
<path d="M295.5 161L330.574 247.813H260.426L295.5 161Z" fill="#7EBE2E"/>
<path d="M367.664 232.016H385.336V283.461H367.664V232.016Z" fill="#96722C"/>
<path d="M327.164 258.298H336V298H327.164V258.298Z" fill="#96722C"/>
<path d="M336 258.298H344.836V298H336V258.298Z" fill="#684E1C"/>
<path d="M376.5 161L411.574 247.813H341.426L376.5 161Z" fill="#59871F"/>
<path d="M336 182.249L371.074 269.062H300.926L336 182.249Z" fill="#89CA37"/>
<path d="M336.736 268.922L336 182.249L370.977 268.922H336.736Z" fill="#699E26"/>
<path d="M163.1 270.461H179.9V320.78H163.1V270.461Z" fill="#96722C"/>
<path d="M171.5 201L204.842 285.912H138.158L171.5 201Z" fill="#7EBE2E"/>
<path d="M240.1 270.461H256.9V320.78H240.1V270.461Z" fill="#96722C"/>
<path d="M201.6 296.167H210V335H201.6V296.167Z" fill="#96722C"/>
<path d="M210 296.167H218.4V335H210V296.167Z" fill="#684E1C"/>
<path d="M248.5 201L281.842 285.912H215.158L248.5 201Z" fill="#59871F"/>
<path d="M210 221.784L243.342 306.696H176.658L210 221.784Z" fill="#89CA37"/>
<path d="M210.7 306.559L210 221.784L243.25 306.559H210.7Z" fill="#699E26"/>
<path d="M492 193C489.846 193 484.751 192.556 482.951 190.413C481.469 188.647 478.809 189.941 477.169 188.584C474.467 186.35 468.457 185.773 465.304 185.773C463.185 185.773 461.37 185.677 459.371 185.015C457.574 184.421 455.469 183.365 453.708 183.365C451.372 183.365 448.682 183.463 446.457 182.517C444.565 181.712 442.933 180.153 440.765 180.153" stroke="black" stroke-width="3" stroke-linecap="round" stroke-linejoin="round"/>
<path d="M439.976 180.153C437.97 179.577 436.013 179.287 434.182 177.982C433.645 177.599 432.688 177.412 432.097 177.362C431.351 177.3 430.651 176.316 429.895 176.316C428.228 176.316 426.355 175.61 424.68 175.25C422.943 174.877 421.15 173.627 419.401 173.526C417.858 173.436 415.417 173.029 414.071 171.782C411.981 169.846 409.492 169.204 407.285 167.751C405.616 166.652 403.814 166.063 402.084 165.484C400.335 164.899 398.493 163.209 396.637 163.062C395.294 162.955 393.828 161.666 392.414 161.666C390.454 161.666 388.992 160.524 387.251 159.942C385.848 159.473 384.632 158.422 383.298 157.849C382.718 157.599 381.568 157.481 380.994 157.481C380.15 157.481 379.436 156.831 378.612 156.783C377.221 156.703 376.145 155.496 374.852 155.388C373.59 155.283 372.541 153.61 371.363 153.315C370.085 152.994 368.57 152.201 367.552 151.009C366.283 149.524 364.509 149.795 363.032 148.684C361.871 147.809 360.404 148.479 359.273 147.366C358.397 146.504 357.65 146.634 356.775 146.048C356.096 145.594 355.495 145.037 354.805 144.575C353.623 143.785 352.381 143.359 351.11 142.812C349.863 142.276 348.354 140.739 346.99 140.739C345.55 140.739 344.651 138.414 343.333 138.297C342.191 138.196 340.207 136.401 339.277 135.313C338.29 134.158 336.74 132.802 335.569 132.019C334.834 131.527 334.216 130.683 333.47 130.275C332.601 129.799 331.633 129.502 330.818 128.957C329.764 128.252 328.644 127.775 327.573 127.058C326.271 126.187 324.356 126.131 323.286 124.52C321.826 122.323 320.183 120.508 318.676 118.241C317.502 116.475 316.251 115.677 315.058 113.881C312.443 109.946 309.173 106.343 305.659 104.832C304.003 104.12 302.542 103.418 300.805 103.418C299.164 103.418 298.131 103.878 296.518 103.069" stroke="black" stroke-width="3" stroke-linecap="round" stroke-linejoin="round"/>
<path d="M296.518 103.116C296.129 102.871 295.842 102.525 295.494 102.24C295.257 102.044 295.177 101.64 294.848 101.532C294.37 101.375 294.054 100.764 293.694 100.284C293.277 99.7303 292.554 98.7221 292.042 98.5057C291.718 98.3687 291.463 98.107 291.187 97.789C290.94 97.5053 290.571 97.4986 290.379 97.1431C290.295 96.9874 289.773 96.5836 289.625 96.4618C289.333 96.2218 289.053 95.9916 288.763 95.754C288.001 95.1278 287.252 94.7475 286.418 94.3206C285.87 94.0401 285.092 94.0374 284.509 94.0374C284.133 94.0374 283.698 93.9476 283.33 94.0463C282.827 94.1817 282.48 94.8577 282.032 95.1523C281.786 95.3141 281.682 95.7941 281.44 95.984C281.189 96.1801 280.75 96.4034 280.47 96.4264C280.027 96.4628 279.453 97.2715 279.178 97.7802C278.889 98.3137 278.514 98.7716 278.185 99.2578C277.624 100.087 277.119 101.159 276.378 101.647C275.338 102.33 274.553 103.783 273.524 104.629C273.097 104.979 272.557 105.783 272.07 105.823C271.63 105.859 270.764 106.225 270.43 106.584C270.127 106.911 269.652 106.967 269.324 107.345C269.133 107.564 268.814 108.053 268.57 108.053C268.128 108.053 267.357 109.128 267.032 109.521C266.801 109.801 266.48 109.939 266.2 110.123C265.975 110.271 265.796 110.72 265.56 110.919C265.01 111.384 264.499 112.044 263.945 112.512C263.346 113.018 262.858 113.975 262.269 114.459C261.922 114.744 261.755 115.353 261.432 115.697C261.16 115.986 260.846 116.138 260.606 116.494C260.181 117.122 259.709 118.129 259.194 118.564C258.929 118.788 258.664 118.958 258.446 119.281C258.164 119.698 257.77 120.449 257.423 120.705C256.713 121.23 256.185 122.063 255.484 122.581C255.152 122.827 254.907 123.279 254.569 123.501C254.127 123.792 253.678 124.113 253.27 124.457C252.219 125.346 250.988 125.587 249.884 126.404C249.532 126.663 249.118 126.835 248.747 127.085C248.207 127.448 247.704 127.978 247.143 128.279C246.797 128.465 246.289 129.189 246.114 129.642C245.886 130.234 245.412 130.575 245.085 131.058C244.66 131.687 244.249 132.153 243.829 132.774C243.331 133.51 242.817 134.47 242.129 134.809" stroke="black" stroke-width="3" stroke-linecap="round" stroke-linejoin="round"/>
<path d="M242.129 134.809C241.037 135.13 240.438 136.285 239.494 136.996C239.313 137.133 239.207 137.507 239.014 137.507C238.767 137.507 238.421 137.593 238.177 137.675C237.831 137.79 237.388 138.138 237.175 138.539C236.927 139.007 236.558 139.258 236.227 139.535C235.783 139.906 235.448 140.473 235.021 140.84C234.221 141.528 233.445 142.316 232.643 143.026C232.329 143.304 231.958 143.833 231.741 144.252C231.495 144.729 230.777 144.941 230.43 145.248C230.184 145.466 229.873 145.815 229.692 146.156C229.437 146.635 229 146.755 228.69 147.117C227.471 148.546 226.002 150.045 224.422 150.045C223.359 150.045 222.235 150.15 221.26 150.803C220.893 151.048 220.594 151.545 220.258 151.949C219.826 152.47 219.561 152.76 219.046 153.148C218.594 153.488 218.128 153.707 217.676 154.047C217.22 154.39 216.802 154.039 216.358 154.559C215.794 155.22 214.928 155.357 214.361 156.075C214.051 156.469 213.631 156.585 213.354 157.107C213.197 157.403 212.531 157.943 212.3 157.98C211.898 158.043 211.498 158.663 211.193 159.02C210.732 159.56 210.242 159.968 209.823 160.598C209.554 161.004 209.377 161.517 209.115 161.912C208.718 162.51 208.227 163.001 207.821 163.614C207.21 164.533 206.725 166.121 205.871 166.55" stroke="black" stroke-width="3" stroke-linecap="round" stroke-linejoin="round"/>
<path d="M210.6 159.435C209.977 159.23 209.615 158.728 209.113 158.286C208.627 157.858 208.192 157.417 207.632 157.208C206.489 156.78 205.32 156.89 204.122 156.89C203.591 156.89 203.06 156.89 202.529 156.89C202.092 156.89 201.015 157.038 200.724 156.492C200.502 156.077 199.357 156.28 199.025 156.254C198.526 156.214 198.007 156.094 197.479 156.094C195.033 156.094 192.577 156.094 190.104 156.094C188.795 156.094 187.485 156.094 186.175 156.094C185.413 156.094 183.766 155.673 183.178 156.377C182.91 156.698 182.143 156.988 181.821 157.049C181.531 157.103 181.118 157.959 180.812 158.162C180.269 158.524 179.932 159.319 179.426 159.753C178.805 160.284 178.209 161.274 177.68 161.979C177.266 162.531 176.643 162.673 176.216 163.287C175.769 163.932 175.236 164.445 174.659 164.692C174.114 164.925 173.593 165.502 173.031 165.761C172.403 166.05 171.656 166.291 171.095 166.83C170.459 167.443 169.867 167.545 169.131 167.714C168.786 167.794 168.355 167.788 168.022 167.944C167.584 168.149 167.091 168.501 166.635 168.501C165.909 168.501 165.182 169.258 164.488 169.579C163.98 169.813 163.308 170.091 162.765 170.091C162.044 170.091 161.397 170.526 160.736 170.886C160.079 171.244 159.19 171.463 158.671 172.159C157.889 173.207 156.717 172.954 155.856 173.67C155.481 173.982 155.092 174.863 154.635 174.863" stroke="black" stroke-width="3" stroke-linecap="round" stroke-linejoin="round"/>
<path d="M154.635 174.863C153.421 175.249 152.476 176.277 151.265 176.604C150.581 176.788 149.753 177.062 149.121 177.488C148.537 177.882 147.954 177.939 147.37 178.239C147.085 178.385 146.794 178.264 146.513 178.398C146.222 178.537 145.913 178.778 145.631 178.964C145.219 179.236 144.688 179.549 144.238 179.644C142.42 180.03 140.824 181.704 138.962 181.704C137.57 181.704 136.199 181.863 134.799 181.863C134.098 181.863 133.364 181.768 132.667 181.872C131.825 181.997 130.947 182.452 130.113 182.499C129.581 182.53 129.142 182.818 128.612 182.818C127.871 182.818 127.292 183.007 126.599 183.145C125.77 183.309 124.961 184.066 124.17 184.444C123.597 184.717 122.714 184.709 122.21 185.125C121.984 185.311 121.518 185.282 121.252 185.354C120.886 185.453 120.496 185.604 120.126 185.673C119.331 185.82 118.657 186 117.834 186C117.445 186 117.082 186.159 116.69 186.159C116.476 186.159 116.143 186.067 115.94 186.194C115.284 186.604 114.298 186.973 113.588 187.104C113.015 187.211 112.39 187.113 111.813 187.113C111.14 187.113 110.448 187.272 109.806 187.272C108.359 187.272 107.024 188.227 105.59 188.227C104.648 188.227 103.737 189.212 102.839 189.553C102.37 189.731 101.904 189.857 101.475 190.216C101.2 190.445 100.825 190.748 100.505 190.773C99.4752 190.853 98.3614 190.549 97.3425 190.781C95.9256 191.105 94.5424 191.509 93.1085 191.568C92.5408 191.591 92.0157 191.744 91.5542 192.125C91.0589 192.533 90.5971 193 90 193" stroke="black" stroke-width="3" stroke-linecap="round" stroke-linejoin="round"/>
<path d="M49.3774 194.865H69.1229V253.445H49.3774V194.865Z" fill="#96722C"/>
<path d="M59.25 114L98.4377 212.853H20.0624L59.25 114Z" fill="#7EBE2E"/>
<path d="M139.877 194.865H159.623V253.445H139.877V194.865Z" fill="#96722C"/>
<path d="M94.6274 224.792H104.5V270H94.6274V224.792Z" fill="#96722C"/>
<path d="M104.5 224.792H114.373V270H104.5V224.792Z" fill="#684E1C"/>
<path d="M149.75 114L188.938 212.853H110.562L149.75 114Z" fill="#59871F"/>
<path d="M104.5 138.196L143.688 237.049H65.3124L104.5 138.196Z" fill="#89CA37"/>
<path d="M105.323 236.89L104.5 138.196L143.58 236.89H105.323Z" fill="#699E26"/>
<path d="M418.377 194.865H438.123V253.445H418.377V194.865Z" fill="#96722C"/>
<path d="M428.25 114L467.438 212.853H389.062L428.25 114Z" fill="#7EBE2E"/>
<path d="M508.877 194.865H528.623V253.445H508.877V194.865Z" fill="#96722C"/>
<path d="M463.627 224.792H473.5V270H463.627V224.792Z" fill="#96722C"/>
<path d="M473.5 224.792H483.373V270H473.5V224.792Z" fill="#684E1C"/>
<path d="M518.75 114L557.938 212.853H479.562L518.75 114Z" fill="#59871F"/>
<path d="M473.5 138.196L512.688 237.049H434.312L473.5 138.196Z" fill="#89CA37"/>
<path d="M474.323 236.89L473.5 138.196L512.58 236.89H474.323Z" fill="#699E26"/>
</svg>
