<svg width="625" height="324" viewBox="0 0 625 324" fill="none" xmlns="http://www.w3.org/2000/svg">
<ellipse cx="232.713" cy="69.6838" rx="64.273" ry="69.6838" fill="#F2C757"/>
<line y1="-0.5" x2="9.40721" y2="-0.5" transform="matrix(0.880273 0.474467 0.600672 -0.799495 348.327 81.021)" stroke="black"/>
<line y1="-0.5" x2="13.5908" y2="-0.5" transform="matrix(-0.805282 0.592891 -0.716213 -0.697881 366.799 77.4265)" stroke="black"/>
<line y1="-0.5" x2="12.9434" y2="-0.5" transform="matrix(-0.593408 0.804902 -0.883974 -0.467537 347.727 81.021)" stroke="black"/>
<line y1="-0.5" x2="13.1222" y2="-0.5" transform="matrix(0.662115 0.749402 0.844623 -0.535361 287.349 81.6587)" stroke="black"/>
<line y1="-0.5" x2="7.43312" y2="-0.5" transform="matrix(-0.966319 0.257347 -0.348015 -0.937489 276.464 81.6587)" stroke="black"/>
<line y1="-0.5" x2="12.3638" y2="-0.5" transform="matrix(0.215269 0.976555 0.987725 -0.156202 276.812 81.814)" stroke="black"/>
<line y1="-0.5" x2="14.9648" y2="-0.5" transform="matrix(-0.585057 0.810992 -0.888108 -0.459636 287.037 81.9668)" stroke="black"/>
<line y1="-0.5" x2="13.0023" y2="-0.5" transform="matrix(-0.617184 0.786819 -0.871487 -0.490419 302.902 81.6587)" stroke="black"/>
<line y1="-0.5" x2="9.75192" y2="-0.5" transform="matrix(0.694766 0.719236 -0.821926 0.569594 303.158 81.6587)" stroke="black"/>
<line y1="-0.5" x2="7.63043" y2="-0.5" transform="matrix(-0.743701 0.668513 -0.781595 -0.623786 315.608 83.5715)" stroke="black"/>
<line y1="-0.5" x2="11.0205" y2="-0.5" transform="matrix(0.788171 0.615456 -0.736396 0.676551 315.956 84.209)" stroke="black"/>
<line y1="-0.5" x2="13.138" y2="-0.5" transform="matrix(-0.667703 0.744428 -0.840945 -0.54112 333.009 81.021)" stroke="black"/>
<line y1="-0.5" x2="12.9846" y2="-0.5" transform="matrix(0.610168 0.792272 0.875286 -0.483606 332.842 80.9373)" stroke="black"/>
<path d="M356.351 85.3259L364.623 79.182L361.14 76.11L358.963 75.2323L358.092 74.7934L357.657 74.3546L356.351 72.5992L351.998 66.8941L346.773 59.8724L342.855 55.045L340.679 52.8507L338.502 51.5342L336.325 50.2176L335.019 49.7787L334.148 49.3399H332.407H331.536H330.23H329.36L328.054 48.901L327.183 48.4622L325.441 46.7068L323.265 44.0736L320.653 41.8794L317.17 39.2462L316.299 38.8074H315.428H314.558L313.252 40.5628L312.381 41.0016L311.51 41.4405L311.075 41.8794L309.334 45.3902L308.463 46.7068L308.028 47.1456L307.592 47.5845L307.157 48.0233L306.286 48.901L305.415 49.7787L304.545 50.6564L303.674 51.5342L302.368 52.4119L301.062 52.8507L300.191 53.2896L297.579 55.9227L294.532 59.4335L292.79 61.1889L290.178 64.2609L287.566 67.7718L285.825 69.966L284.519 71.2826L283.648 72.1603L282.342 73.4769L280.601 74.7934L278.424 76.11L274.941 78.7431L272.329 82.6928L276.247 81.3762L279.295 92.7865L287.131 81.3762L295.402 91.031L303.239 80.9374L311.075 88.8368L316.299 84.0094L325.006 90.5922L332.842 81.3762L340.679 91.031L348.079 81.3762L356.351 85.3259Z" fill="#F7F7F7" stroke="black"/>
<path d="M545.213 153.662C542.825 153.662 537.179 153.133 535.186 150.58C533.542 148.476 530.595 150.018 528.777 148.401C525.784 145.74 519.124 145.054 515.629 145.054C513.282 145.054 511.27 144.938 509.055 144.15C507.064 143.442 504.731 142.184 502.78 142.184C500.19 142.184 497.21 142.302 494.745 141.175C492.647 140.216 490.839 138.358 488.436 138.358" stroke="black" stroke-width="3" stroke-linecap="round" stroke-linejoin="round"/>
<path d="M487.563 138.358C485.339 137.673 483.17 137.327 481.142 135.773C480.546 135.317 479.486 135.094 478.831 135.035C478.004 134.96 477.229 133.788 476.391 133.788C474.544 133.788 472.468 132.948 470.612 132.519C468.687 132.074 466.7 130.585 464.762 130.464C463.052 130.358 460.347 129.872 458.855 128.387C456.539 126.081 453.781 125.317 451.336 123.586C449.486 122.276 447.49 121.575 445.572 120.885C443.634 120.189 441.592 118.175 439.536 118C438.048 117.873 436.423 116.338 434.856 116.338C432.684 116.338 431.064 114.977 429.135 114.284C427.58 113.725 426.232 112.474 424.755 111.791C424.111 111.494 422.837 111.352 422.201 111.352C421.266 111.352 420.474 110.578 419.561 110.521C418.02 110.426 416.828 108.988 415.395 108.86C413.996 108.734 412.834 106.742 411.528 106.39C410.112 106.008 408.433 105.063 407.305 103.643C405.899 101.875 403.933 102.197 402.297 100.873C401.009 99.8318 399.384 100.63 398.13 99.3035C397.16 98.2772 396.332 98.4312 395.362 97.734C394.61 97.1928 393.944 96.5294 393.179 95.9797C391.87 95.0381 390.494 94.5306 389.084 93.8792C387.703 93.2409 386.03 91.4095 384.519 91.4095C382.924 91.4095 381.927 88.6401 380.467 88.5011C379.202 88.3807 377.002 86.2424 375.972 84.9465C374.878 83.5703 373.16 81.9552 371.863 81.0225C371.049 80.4371 370.364 79.4313 369.537 78.9451C368.574 78.3783 367.501 78.025 366.598 77.3755C365.43 76.536 364.189 75.967 363.002 75.1135C361.56 74.076 359.437 74.0086 358.251 72.0897C356.634 69.4731 354.812 67.3116 353.143 64.6111C351.842 62.5068 350.456 61.5559 349.134 59.4177C346.236 54.7299 342.612 50.4383 338.718 48.6383C336.882 47.7898 335.264 46.9533 333.339 46.9533C331.521 46.9533 330.376 47.5021 328.588 46.5378" stroke="black" stroke-width="3" stroke-linecap="round" stroke-linejoin="round"/>
<path d="M328.588 46.5935C328.157 46.3025 327.838 45.8897 327.454 45.5501C327.19 45.3176 327.102 44.8357 326.738 44.707C326.208 44.5198 325.857 43.792 325.458 43.2209C324.997 42.5611 324.196 41.3603 323.628 41.1024C323.269 40.9392 322.986 40.6275 322.68 40.2487C322.406 39.9107 321.998 39.9028 321.785 39.4793C321.691 39.2939 321.114 38.8128 320.949 38.6678C320.626 38.3819 320.315 38.1077 319.995 37.8246C319.15 37.0788 318.32 36.6258 317.395 36.1172C316.788 35.7831 315.927 35.7799 315.28 35.7799C314.864 35.7799 314.381 35.6729 313.974 35.7905C313.416 35.9517 313.032 36.7571 312.535 37.1079C312.263 37.3006 312.148 37.8724 311.879 38.0986C311.601 38.3323 311.115 38.5982 310.805 38.6256C310.314 38.669 309.677 39.6323 309.373 40.2382C309.053 40.8738 308.636 41.4192 308.272 41.9983C307.651 42.9859 307.091 44.2634 306.27 44.844C305.117 45.6579 304.247 47.3888 303.107 48.3958C302.634 48.8136 302.036 49.771 301.496 49.8186C301.008 49.8617 300.049 50.2971 299.679 50.725C299.342 51.1144 298.816 51.1815 298.452 51.6315C298.241 51.8926 297.887 52.4746 297.617 52.4746C297.127 52.4746 296.273 53.7551 295.913 54.2242C295.657 54.557 295.301 54.7218 294.991 54.9409C294.742 55.1168 294.543 55.6517 294.282 55.8894C293.672 56.4431 293.105 57.2289 292.491 57.7866C291.828 58.3893 291.288 59.5286 290.635 60.1053C290.25 60.4453 290.065 61.1704 289.707 61.5808C289.406 61.9249 289.058 62.106 288.792 62.5294C288.321 63.278 287.798 64.4768 287.227 64.9956C286.934 65.262 286.64 65.4643 286.398 65.8493C286.085 66.3463 285.649 67.2405 285.264 67.5462C284.478 68.1711 283.893 69.1634 283.116 69.7806C282.748 70.073 282.476 70.6121 282.102 70.8767C281.612 71.2224 281.114 71.6048 280.663 72.015C279.498 73.0734 278.134 73.361 276.91 74.3337C276.52 74.6433 276.061 74.848 275.65 75.1452C275.052 75.5776 274.494 76.2093 273.873 76.5681C273.49 76.7898 272.927 77.6522 272.733 78.1912C272.479 78.8963 271.954 79.3022 271.592 79.8775C271.121 80.6272 270.666 81.1819 270.2 81.9222C269.649 82.7983 269.079 83.9426 268.317 84.3463" stroke="black" stroke-width="3" stroke-linecap="round" stroke-linejoin="round"/>
<path d="M268.317 84.3462C267.107 84.7284 266.443 86.1045 265.397 86.9508C265.196 87.1138 265.078 87.5599 264.865 87.5599C264.592 87.5599 264.208 87.662 263.937 87.7595C263.554 87.8971 263.063 88.3112 262.827 88.7887C262.552 89.3467 262.143 89.6452 261.776 89.9755C261.285 90.4172 260.913 91.0922 260.439 91.5298C259.554 92.3489 258.694 93.2883 257.805 94.1344C257.457 94.4655 257.045 95.0953 256.806 95.5942C256.533 96.162 255.737 96.4147 255.352 96.781C255.079 97.0406 254.736 97.4557 254.534 97.8627C254.252 98.4331 253.768 98.5756 253.425 99.0075C252.073 100.709 250.446 102.494 248.694 102.494C247.517 102.494 246.272 102.62 245.19 103.397C244.784 103.689 244.453 104.281 244.08 104.763C243.601 105.383 243.308 105.729 242.737 106.191C242.237 106.596 241.72 106.857 241.219 107.262C240.714 107.671 240.25 107.253 239.759 107.871C239.133 108.659 238.174 108.822 237.546 109.678C237.202 110.147 236.737 110.285 236.43 110.907C236.256 111.259 235.517 111.903 235.262 111.946C234.816 112.022 234.373 112.761 234.035 113.186C233.524 113.829 232.981 114.315 232.517 115.066C232.218 115.549 232.022 116.16 231.732 116.63C231.292 117.342 230.748 117.928 230.298 118.657C229.621 119.752 229.084 121.644 228.137 122.155" stroke="black" stroke-width="3" stroke-linecap="round" stroke-linejoin="round"/>
<path d="M233.378 113.68C232.687 113.436 232.287 112.838 231.73 112.311C231.191 111.801 230.709 111.277 230.089 111.027C228.822 110.517 227.526 110.648 226.199 110.648C225.611 110.648 225.022 110.648 224.434 110.648C223.949 110.648 222.756 110.825 222.433 110.175C222.188 109.681 220.919 109.922 220.55 109.89C219.998 109.844 219.422 109.701 218.837 109.701C216.127 109.701 213.405 109.701 210.665 109.701C209.214 109.701 207.762 109.701 206.311 109.701C205.467 109.701 203.641 109.199 202.99 110.038C202.693 110.42 201.843 110.766 201.486 110.838C201.164 110.902 200.707 111.921 200.368 112.164C199.766 112.594 199.393 113.542 198.832 114.058C198.143 114.692 197.484 115.871 196.897 116.711C196.438 117.367 195.748 117.537 195.275 118.269C194.779 119.036 194.188 119.648 193.549 119.942C192.945 120.22 192.368 120.907 191.745 121.216C191.05 121.56 190.222 121.846 189.6 122.489C188.895 123.219 188.239 123.34 187.423 123.542C187.041 123.637 186.563 123.63 186.194 123.816C185.709 124.06 185.163 124.479 184.658 124.479C183.853 124.479 183.048 125.382 182.278 125.763C181.715 126.042 180.971 126.373 180.369 126.373C179.57 126.373 178.853 126.892 178.12 127.321C177.393 127.746 176.407 128.008 175.832 128.836C174.965 130.084 173.666 129.783 172.713 130.636C172.297 131.008 171.866 132.057 171.36 132.057" stroke="black" stroke-width="3" stroke-linecap="round" stroke-linejoin="round"/>
<path d="M171.36 132.057C170.014 132.517 168.967 133.742 167.625 134.131C166.867 134.351 165.949 134.676 165.249 135.184C164.602 135.653 163.956 135.722 163.309 136.079C162.993 136.253 162.67 136.109 162.359 136.268C162.037 136.433 161.695 136.721 161.382 136.942C160.926 137.266 160.337 137.639 159.838 137.753C157.824 138.212 156.055 140.206 153.991 140.206C152.448 140.206 150.929 140.396 149.378 140.396C148.602 140.396 147.788 140.283 147.016 140.406C146.083 140.555 145.11 141.097 144.185 141.154C143.596 141.19 143.109 141.533 142.522 141.533C141.701 141.533 141.06 141.759 140.292 141.922C139.372 142.118 138.476 143.02 137.599 143.47C136.964 143.796 135.987 143.786 135.428 144.281C135.178 144.503 134.661 144.469 134.366 144.554C133.96 144.672 133.528 144.852 133.118 144.933C132.237 145.109 131.49 145.323 130.578 145.323C130.147 145.323 129.745 145.513 129.311 145.513C129.073 145.513 128.704 145.404 128.479 145.555C127.752 146.043 126.66 146.482 125.873 146.639C125.238 146.766 124.546 146.65 123.906 146.65C123.161 146.65 122.393 146.839 121.682 146.839C120.079 146.839 118.599 147.976 117.01 147.976C115.966 147.976 114.957 149.149 113.961 149.556C113.442 149.768 112.926 149.918 112.45 150.345C112.145 150.619 111.729 150.979 111.375 151.009C110.234 151.104 109 150.742 107.871 151.019C106.3 151.404 104.768 151.886 103.179 151.956C102.549 151.984 101.968 152.166 101.456 152.619C100.907 153.106 100.396 153.662 99.7339 153.662" stroke="black" stroke-width="3" stroke-linecap="round" stroke-linejoin="round"/>
<path d="M102.793 152.611L99.7339 154.853L546.321 154.405L539.766 153.956L536.707 152.611L534.959 151.265L534.086 150.817L532.775 150.369H531.901L528.405 149.023L522.287 146.781L517.917 145.884H512.674L506.993 144.09L502.623 143.193L496.069 142.297L492.136 140.054L488.203 139.157H486.892L481.649 136.915L478.153 135.57L476.405 134.673L470.724 133.328L465.918 131.534L463.296 131.086L459.363 129.292L453.245 125.704L448.002 122.565L443.195 120.323L438.388 118.529L434.893 117.184L430.96 115.838L427.027 114.045L424.405 112.699H422.22L420.035 111.802L417.414 110.906L416.103 110.009L414.792 109.56L413.044 108.663L411.296 107.318L409.111 106.421L406.926 104.627L406.052 103.73L403.867 102.834L402.12 101.937L400.809 101.488L398.187 100.591L396.876 99.6945L396.002 99.2461L392.943 97.0038L388.573 94.7616L385.078 92.5194L383.33 92.071L381.145 89.8287L379.397 88.9319L377.212 87.5865L372.842 83.1021L369.783 80.4114L366.288 78.6177L356.674 85.7928L348.372 81.3083L340.943 91.6225L333.078 82.2052L325.212 90.7256L316.473 84.4474L311.229 88.9319L303.364 81.7568L295.498 92.071L287.195 82.2052L279.33 94.3132L276.271 82.2052L269.717 83.999L262.288 90.2772L250.927 102.385L248.305 103.73H245.683L243.935 105.973L240.876 108.215L235.633 113.148L233.885 115.39L231.263 119.874L229.952 122.117H227.767L232.137 113.148L231.263 112.699L228.641 111.354H225.145L221.649 110.009H204.171L200.238 112.699L191.935 121.668L180.574 126.601L171.398 132.431L160.473 137.812L153.919 140.054H147.801L141.246 141.4L134.255 144.539L128.137 145.436L124.641 146.781H122.02L118.961 147.678L115.902 148.575L111.095 151.265H109.347H106.725L102.793 152.611Z" fill="#E1DDDD" stroke="black"/>
<line y1="-3" x2="445.705" y2="-3" transform="matrix(0.999999 0.00118704 -0.00111523 0.999999 99.3564 155.542)" stroke="#E1DDDD" stroke-width="6"/>
<path d="M39.2036 167.796H61.0847V237.574H39.2036V167.796Z" fill="#96722C"/>
<path d="M50.1441 71.4707L93.5701 189.222H6.71803L50.1441 71.4707Z" fill="#7EBE2E"/>
<path d="M139.492 167.796H161.373V237.574H139.492V167.796Z" fill="#96722C"/>
<path d="M89.3477 203.443H100.288V257.294H89.3477V203.443Z" fill="#96722C"/>
<path d="M100.288 203.443H111.229V257.294H100.288V203.443Z" fill="#684E1C"/>
<path d="M150.432 71.4707L193.858 189.222H107.006L150.432 71.4707Z" fill="#59871F"/>
<path d="M100.288 100.292L143.714 218.044H56.8621L100.288 100.292Z" fill="#89CA37"/>
<path d="M101.2 217.854L100.288 100.292L143.594 217.854H101.2Z" fill="#699E26"/>
<path d="M317.668 201.328H337.252V262.608H317.668V201.328Z" fill="#96722C"/>
<path d="M327.46 116.735L366.327 220.145H288.592L327.46 116.735Z" fill="#7EBE2E"/>
<path d="M407.428 201.328H427.012V262.608H407.428V201.328Z" fill="#96722C"/>
<path d="M362.548 232.634H372.34V279.926H362.548V232.634Z" fill="#96722C"/>
<path d="M372.34 232.634H382.132V279.926H372.34V232.634Z" fill="#684E1C"/>
<path d="M417.221 116.735L456.088 220.145H378.353L417.221 116.735Z" fill="#59871F"/>
<path d="M372.34 142.047L411.208 245.457H333.473L372.34 142.047Z" fill="#89CA37"/>
<path d="M373.156 245.29L372.34 142.047L411.101 245.29H373.156Z" fill="#699E26"/>
<path d="M463.627 157.075H485.509V226.854H463.627V157.075Z" fill="#96722C"/>
<path d="M474.568 60.75L517.994 178.501H431.142L474.568 60.75Z" fill="#7EBE2E"/>
<path d="M563.916 157.075H585.797V226.854H563.916V157.075Z" fill="#96722C"/>
<path d="M513.771 192.722H524.712V246.573H513.771V192.722Z" fill="#96722C"/>
<path d="M524.712 192.722H535.652V246.573H524.712V192.722Z" fill="#684E1C"/>
<path d="M574.856 60.75L618.282 178.501H531.43L574.856 60.75Z" fill="#59871F"/>
<path d="M524.712 89.5715L568.138 207.323H481.286L524.712 89.5715Z" fill="#89CA37"/>
<path d="M525.624 207.133L524.712 89.5715L568.018 207.133H525.624Z" fill="#699E26"/>
<path d="M180.74 247.123H199.357V307.061H180.74V247.123Z" fill="#96722C"/>
<path d="M190.049 164.382L226.997 265.528H153.101L190.049 164.382Z" fill="#7EBE2E"/>
<path d="M266.068 247.123H284.685V307.061H266.068V247.123Z" fill="#96722C"/>
<path d="M223.404 277.743H232.713V324H223.404V277.743Z" fill="#96722C"/>
<path d="M232.713 277.743H242.021V324H232.713V277.743Z" fill="#684E1C"/>
<path d="M275.377 164.382L312.325 265.528H238.429L275.377 164.382Z" fill="#59871F"/>
<path d="M232.713 189.139L269.661 290.285H195.765L232.713 189.139Z" fill="#89CA37"/>
<path d="M233.489 290.122L232.713 189.139L269.559 290.122H233.489Z" fill="#699E26"/>
</svg>
