<svg height="512pt" viewBox="0 -4 512 511" width="512pt" xmlns="http://www.w3.org/2000/svg"><path d="m196.265625 435.699219h25.601563v59.734375c0 4.710937-3.820313 8.53125-8.535157 8.53125h-17.066406c-4.710937 0-8.53125-3.820313-8.53125-8.53125v-51.199219c0-4.714844 3.820313-8.535156 8.53125-8.535156zm0 0" fill="#394f63"/><path d="m290.132812 435.699219h25.601563c4.710937 0 8.53125 3.820312 8.53125 8.535156v51.199219c0 4.710937-3.820313 8.53125-8.53125 8.53125h-17.066406c-4.714844 0-8.535157-3.820313-8.535157-8.53125zm0 0" fill="#394f63"/><path d="m221.867188 452.765625h68.265624v34.132813h-68.265624zm0 0" fill="#336a93"/><path d="m290.132812 418.632812v34.132813h-68.265624v-34.132813c0-4.710937 3.820312-8.53125 8.53125-8.53125h51.203124c4.710938 0 8.53125 3.820313 8.53125 8.53125zm0 0" fill="#5496ce"/><path d="m264.535156 307.699219c0 4.714843-3.824218 8.535156-8.535156 8.535156s-8.535156-3.820313-8.535156-8.535156c0-4.710938 3.824218-8.53125 8.535156-8.53125s8.535156 3.820312 8.535156 8.53125zm0 0" fill="#f6db6d"/><path d="m264.535156 273.566406c0 4.714844-3.824218 8.535156-8.535156 8.535156s-8.535156-3.820312-8.535156-8.535156c0-4.710937 3.824218-8.53125 8.535156-8.53125s8.535156 3.820313 8.535156 8.53125zm0 0" fill="#f6db6d"/><path d="m264.535156 239.433594c0 4.710937-3.824218 8.53125-8.535156 8.53125s-8.535156-3.820313-8.535156-8.53125c0-4.714844 3.824218-8.535156 8.535156-8.535156s8.535156 3.820312 8.535156 8.535156zm0 0" fill="#f6db6d"/><path d="m247.464844 341.832031h17.070312c4.710938 0 8.53125 3.820313 8.53125 8.535157v59.734374h-34.132812v-59.734374c0-4.714844 3.820312-8.535157 8.53125-8.535157zm0 0" fill="#394f63"/><path d="m68.265625 102.898438h-17.066406c-14.136719 0-25.597657-11.460938-25.597657-25.597657v-51.199219c0-4.714843 3.820313-8.535156 8.53125-8.535156h51.199219c4.714844 0 8.535157 3.820313 8.535157 8.535156v51.199219c0 14.136719-11.460938 25.597657-25.601563 25.597657zm0 0" fill="#d8625e"/><path d="m110.933594 102.898438c-4.714844 0-8.535156-3.820313-8.535156-8.53125 0-4.714844-3.820313-8.535157-8.53125-8.535157h-8.535157c-4.710937 0-8.53125-3.820312-8.53125-8.53125 0-4.714843 3.820313-8.535156 8.53125-8.535156h8.535157c14.136718 0 25.597656 11.460937 25.597656 25.601563 0 4.710937-3.820313 8.53125-8.53125 8.53125zm0 0" fill="#d8625e"/><path d="m8.535156 102.898438c-4.714844 0-8.535156-3.820313-8.535156-8.53125 0-14.140626 11.460938-25.601563 25.601562-25.601563h8.53125c4.714844 0 8.535157 3.820313 8.535157 8.535156 0 4.710938-3.820313 8.53125-8.535157 8.53125h-8.53125c-4.714843 0-8.535156 3.820313-8.535156 8.535157 0 4.710937-3.820312 8.53125-8.53125 8.53125zm0 0" fill="#d8625e"/><path d="m93.867188 34.632812h-8.535157c-4.710937 0-8.53125-3.820312-8.53125-8.53125 0-4.714843 3.820313-8.535156 8.53125-8.535156h8.535157c4.710937 0 8.53125-3.820312 8.53125-8.53125 0-4.714844 3.820312-8.535156 8.535156-8.535156 4.710937 0 8.53125 3.820312 8.53125 8.535156 0 14.136719-11.460938 25.597656-25.597656 25.597656zm0 0" fill="#d8625e"/><path d="m34.132812 34.632812h-8.53125c-14.140624 0-25.601562-11.460937-25.601562-25.597656 0-4.714844 3.820312-8.535156 8.535156-8.535156 4.710938 0 8.53125 3.820312 8.53125 8.535156 0 4.710938 3.820313 8.53125 8.535156 8.53125h8.53125c4.714844 0 8.535157 3.820313 8.535157 8.535156 0 4.710938-3.820313 8.53125-8.535157 8.53125zm0 0" fill="#d8625e"/><path d="m264.535156 102.898438h-17.070312c-14.136719 0-25.597656-11.460938-25.597656-25.597657v-51.199219c0-4.714843 3.820312-8.535156 8.53125-8.535156h51.203124c4.710938 0 8.53125 3.820313 8.53125 8.535156v51.199219c0 14.136719-11.460937 25.597657-25.597656 25.597657zm0 0" fill="#78c5d6"/><path d="m307.199219 102.898438c-4.710938 0-8.53125-3.820313-8.53125-8.53125 0-4.714844-3.820313-8.535157-8.535157-8.535157h-8.53125c-4.714843 0-8.535156-3.820312-8.535156-8.53125 0-4.714843 3.820313-8.535156 8.535156-8.535156h8.53125c14.140626 0 25.601563 11.460937 25.601563 25.601563 0 4.710937-3.820313 8.53125-8.535156 8.53125zm0 0" fill="#78c5d6"/><path d="m204.800781 102.898438c-4.714843 0-8.535156-3.820313-8.535156-8.53125 0-14.140626 11.460937-25.601563 25.601563-25.601563h8.53125c4.714843 0 8.535156 3.820313 8.535156 8.535156 0 4.710938-3.820313 8.53125-8.535156 8.53125h-8.53125c-4.714844 0-8.535157 3.820313-8.535157 8.535157 0 4.710937-3.820312 8.53125-8.53125 8.53125zm0 0" fill="#78c5d6"/><path d="m290.132812 34.632812h-8.53125c-4.714843 0-8.535156-3.820312-8.535156-8.53125 0-4.714843 3.820313-8.535156 8.535156-8.535156h8.53125c4.714844 0 8.535157-3.820312 8.535157-8.53125 0-4.714844 3.820312-8.535156 8.53125-8.535156 4.714843 0 8.535156 3.820312 8.535156 8.535156 0 14.136719-11.460937 25.597656-25.601563 25.597656zm0 0" fill="#78c5d6"/><path d="m230.398438 34.632812h-8.53125c-14.140626 0-25.601563-11.460937-25.601563-25.597656 0-4.714844 3.820313-8.535156 8.535156-8.535156 4.710938 0 8.53125 3.820312 8.53125 8.535156 0 4.710938 3.820313 8.53125 8.535157 8.53125h8.53125c4.714843 0 8.535156 3.820313 8.535156 8.535156 0 4.710938-3.820313 8.53125-8.535156 8.53125zm0 0" fill="#78c5d6"/><path d="m460.800781 102.898438h-17.066406c-14.140625 0-25.601563-11.460938-25.601563-25.597657v-51.199219c0-4.714843 3.820313-8.535156 8.535157-8.535156h51.199219c4.710937 0 8.53125 3.820313 8.53125 8.535156v51.199219c0 14.136719-11.460938 25.597657-25.597657 25.597657zm0 0" fill="#d8625e"/><path d="m503.464844 102.898438c-4.710938 0-8.53125-3.820313-8.53125-8.53125 0-4.714844-3.820313-8.535157-8.535156-8.535157h-8.53125c-4.714844 0-8.535157-3.820312-8.535157-8.53125 0-4.714843 3.820313-8.535156 8.535157-8.535156h8.53125c14.140624 0 25.601562 11.460937 25.601562 25.601563 0 4.710937-3.820312 8.53125-8.535156 8.53125zm0 0" fill="#d8625e"/><path d="m401.066406 102.898438c-4.710937 0-8.53125-3.820313-8.53125-8.53125 0-14.140626 11.460938-25.601563 25.597656-25.601563h8.535157c4.710937 0 8.53125 3.820313 8.53125 8.535156 0 4.710938-3.820313 8.53125-8.53125 8.53125h-8.535157c-4.710937 0-8.53125 3.820313-8.53125 8.535157 0 4.710937-3.820312 8.53125-8.535156 8.53125zm0 0" fill="#d8625e"/><path d="m486.398438 34.632812h-8.53125c-4.714844 0-8.535157-3.820312-8.535157-8.53125 0-4.714843 3.820313-8.535156 8.535157-8.535156h8.53125c4.714843 0 8.535156-3.820312 8.535156-8.53125 0-4.714844 3.820312-8.535156 8.53125-8.535156 4.714844 0 8.535156 3.820312 8.535156 8.535156 0 14.136719-11.460938 25.597656-25.601562 25.597656zm0 0" fill="#d8625e"/><path d="m426.667969 34.632812h-8.535157c-14.136718 0-25.597656-11.460937-25.597656-25.597656 0-4.714844 3.820313-8.535156 8.53125-8.535156 4.714844 0 8.535156 3.820312 8.535156 8.535156 0 4.710938 3.820313 8.53125 8.53125 8.53125h8.535157c4.710937 0 8.53125 3.820313 8.53125 8.535156 0 4.710938-3.820313 8.53125-8.53125 8.53125zm0 0" fill="#d8625e"/><g fill="#f4cd1e"><path d="m187.734375 179.699219h-68.269531c-4.710938 0-8.53125-3.820313-8.53125-8.53125 0-4.714844 3.820312-8.535157 8.53125-8.535157h68.269531c4.710937 0 8.53125 3.820313 8.53125 8.535157 0 4.710937-3.820313 8.53125-8.53125 8.53125zm0 0"/><path d="m153.601562 213.832031c-4.714843 0-8.535156-3.820312-8.535156-8.53125v-68.265625c0-4.714844 3.820313-8.535156 8.535156-8.535156 4.710938 0 8.53125 3.820312 8.53125 8.535156v68.265625c0 4.710938-3.820312 8.53125-8.53125 8.53125zm0 0"/><path d="m129.46875 203.839844c-3.453125 0-6.5625-2.078125-7.882812-5.265625-1.320313-3.191407-.589844-6.859375 1.847656-9.300781l48.265625-48.28125c3.347656-3.234376 8.671875-3.1875 11.960937.105468 3.292969 3.289063 3.339844 8.613282.105469 11.960938l-48.265625 48.28125c-1.597656 1.601562-3.769531 2.5-6.03125 2.5zm0 0"/><path d="m177.730469 203.839844c-2.261719 0-4.429688-.898438-6.03125-2.5l-48.265625-48.28125c-3.234375-3.347656-3.1875-8.671875.105468-11.960938 3.292969-3.292968 8.613282-3.339844 11.960938-.105468l48.265625 48.28125c2.441406 2.441406 3.167969 6.109374 1.847656 9.300781-1.320312 3.1875-4.429687 5.265625-7.882812 5.265625zm0 0"/><path d="m76.800781 179.699219h-68.265625c-4.714844 0-8.535156-3.820313-8.535156-8.53125 0-4.714844 3.820312-8.535157 8.535156-8.535157h68.265625c4.710938 0 8.53125 3.820313 8.53125 8.535157 0 4.710937-3.820312 8.53125-8.53125 8.53125zm0 0"/><path d="m42.667969 213.832031c-4.714844 0-8.535157-3.820312-8.535157-8.53125v-68.265625c0-4.714844 3.820313-8.535156 8.535157-8.535156 4.710937 0 8.53125 3.820312 8.53125 8.535156v68.265625c0 4.710938-3.820313 8.53125-8.53125 8.53125zm0 0"/><path d="m18.535156 203.839844c-3.453125 0-6.5625-2.078125-7.882812-5.265625-1.320313-3.191407-.589844-6.859375 1.847656-9.300781l48.265625-48.28125c3.347656-3.234376 8.671875-3.1875 11.960937.105468 3.292969 3.289063 3.339844 8.613282.105469 11.960938l-48.265625 48.28125c-1.597656 1.601562-3.769531 2.5-6.03125 2.5zm0 0"/><path d="m66.800781 203.839844c-2.265625 0-4.433593-.898438-6.035156-2.5l-48.265625-48.28125c-3.234375-3.347656-3.1875-8.671875.105469-11.960938 3.292969-3.292968 8.613281-3.339844 11.960937-.105468l48.265625 48.28125c2.441407 2.441406 3.167969 6.109374 1.847657 9.300781-1.320313 3.1875-4.429688 5.265625-7.878907 5.265625zm0 0"/><path d="m76.800781 290.632812h-68.265625c-4.714844 0-8.535156-3.820312-8.535156-8.53125 0-4.714843 3.820312-8.535156 8.535156-8.535156h68.265625c4.710938 0 8.53125 3.820313 8.53125 8.535156 0 4.710938-3.820312 8.53125-8.53125 8.53125zm0 0"/><path d="m42.667969 324.765625c-4.714844 0-8.535157-3.820313-8.535157-8.53125v-68.269531c0-4.710938 3.820313-8.53125 8.535157-8.53125 4.710937 0 8.53125 3.820312 8.53125 8.53125v68.269531c0 4.710937-3.820313 8.53125-8.53125 8.53125zm0 0"/><path d="m18.535156 314.773438c-3.453125 0-6.5625-2.078126-7.882812-5.265626-1.320313-3.191406-.589844-6.859374 1.847656-9.300781l48.265625-48.28125c3.347656-3.234375 8.671875-3.1875 11.960937.105469 3.292969 3.289062 3.339844 8.613281.105469 11.960938l-48.265625 48.28125c-1.597656 1.601562-3.769531 2.5-6.03125 2.5zm0 0"/><path d="m66.800781 314.773438c-2.265625 0-4.433593-.898438-6.035156-2.5l-48.265625-48.28125c-3.234375-3.347657-3.1875-8.671876.105469-11.960938 3.292969-3.292969 8.613281-3.339844 11.960937-.105469l48.265625 48.28125c2.441407 2.441407 3.167969 6.109375 1.847657 9.300781-1.320313 3.1875-4.429688 5.265626-7.878907 5.265626zm0 0"/><path d="m392.535156 179.699219h-68.269531c-4.710937 0-8.53125-3.820313-8.53125-8.53125 0-4.714844 3.820313-8.535157 8.53125-8.535157h68.269531c4.710938 0 8.53125 3.820313 8.53125 8.535157 0 4.710937-3.820312 8.53125-8.53125 8.53125zm0 0"/><path d="m358.398438 213.832031c-4.710938 0-8.53125-3.820312-8.53125-8.53125v-68.265625c0-4.714844 3.820312-8.535156 8.53125-8.535156 4.714843 0 8.535156 3.820312 8.535156 8.535156v68.265625c0 4.710938-3.820313 8.53125-8.535156 8.53125zm0 0"/><path d="m334.269531 203.839844c-3.453125 0-6.5625-2.078125-7.882812-5.265625-1.320313-3.191407-.59375-6.859375 1.847656-9.300781l48.265625-48.28125c2.140625-2.21875 5.3125-3.105469 8.296875-2.328126 2.984375.78125 5.316406 3.113282 6.09375 6.097657.78125 2.980469-.105469 6.15625-2.324219 8.296875l-48.265625 48.28125c-1.601562 1.601562-3.769531 2.5-6.03125 2.5zm0 0"/><path d="m382.53125 203.839844c-2.261719 0-4.433594-.898438-6.03125-2.5l-48.265625-48.28125c-2.21875-2.140625-3.109375-5.316406-2.328125-8.296875.78125-2.984375 3.113281-5.316407 6.097656-6.097657 2.980469-.777343 6.15625.109376 8.296875 2.328126l48.265625 48.28125c2.4375 2.441406 3.167969 6.109374 1.847656 9.300781-1.320312 3.1875-4.429687 5.265625-7.882812 5.265625zm0 0"/><path d="m503.464844 179.699219h-68.265625c-4.710938 0-8.53125-3.820313-8.53125-8.53125 0-4.714844 3.820312-8.535157 8.53125-8.535157h68.265625c4.714844 0 8.535156 3.820313 8.535156 8.535157 0 4.710937-3.820312 8.53125-8.535156 8.53125zm0 0"/><path d="m469.332031 213.832031c-4.710937 0-8.53125-3.820312-8.53125-8.53125v-68.265625c0-4.714844 3.820313-8.535156 8.53125-8.535156 4.714844 0 8.535157 3.820312 8.535157 8.535156v68.265625c0 4.710938-3.820313 8.53125-8.535157 8.53125zm0 0"/><path d="m445.199219 203.839844c-3.449219 0-6.558594-2.078125-7.878907-5.265625-1.320312-3.191407-.59375-6.859375 1.847657-9.300781l48.265625-48.28125c2.140625-2.21875 5.3125-3.105469 8.296875-2.328126 2.984375.78125 5.3125 3.113282 6.09375 6.097657.78125 2.980469-.105469 6.15625-2.324219 8.296875l-48.265625 48.28125c-1.601563 1.601562-3.769531 2.5-6.035156 2.5zm0 0"/><path d="m493.464844 203.839844c-2.261719 0-4.433594-.898438-6.03125-2.5l-48.265625-48.28125c-2.21875-2.140625-3.109375-5.316406-2.328125-8.296875.78125-2.984375 3.113281-5.316407 6.09375-6.097657 2.984375-.777343 6.15625.109376 8.300781 2.328126l48.265625 48.28125c2.4375 2.441406 3.167969 6.109374 1.847656 9.300781-1.320312 3.1875-4.429687 5.265625-7.882812 5.265625zm0 0"/><path d="m503.464844 282.101562h-68.265625c-4.710938 0-8.53125-3.820312-8.53125-8.535156 0-4.710937 3.820312-8.53125 8.53125-8.53125h68.265625c4.714844 0 8.535156 3.820313 8.535156 8.53125 0 4.714844-3.820312 8.535156-8.535156 8.535156zm0 0"/><path d="m469.332031 316.234375c-4.710937 0-8.53125-3.820313-8.53125-8.535156v-68.265625c0-4.714844 3.820313-8.535156 8.53125-8.535156 4.714844 0 8.535157 3.820312 8.535157 8.535156v68.265625c0 4.714843-3.820313 8.535156-8.535157 8.535156zm0 0"/><path d="m445.199219 306.242188c-3.449219-.003907-6.558594-2.082032-7.878907-5.269532-1.320312-3.1875-.59375-6.859375 1.847657-9.296875l48.265625-48.28125c2.140625-2.21875 5.3125-3.109375 8.296875-2.328125s5.3125 3.109375 6.09375 6.09375-.105469 6.15625-2.324219 8.296875l-48.265625 48.285157c-1.601563 1.597656-3.769531 2.5-6.035156 2.5zm0 0"/><path d="m493.464844 306.242188c-2.261719 0-4.433594-.902344-6.03125-2.5l-48.265625-48.285157c-2.21875-2.140625-3.109375-5.3125-2.328125-8.296875s3.113281-5.3125 6.09375-6.09375c2.984375-.78125 6.15625.109375 8.300781 2.328125l48.265625 48.28125c2.4375 2.4375 3.167969 6.109375 1.847656 9.296875-1.320312 3.1875-4.429687 5.265625-7.882812 5.269532zm0 0"/></g></svg>