<svg width="402" height="281" viewBox="0 0 402 281" fill="none" xmlns="http://www.w3.org/2000/svg">
<path d="M287.566 121.969C250.912 119.451 223.186 91.127 225.638 58.7051C228.091 26.2831 259.794 2.04101 296.449 4.55881C333.104 7.07661 397.559 70.5142 397.559 70.5142C397.559 70.5142 324.221 124.487 287.566 121.969Z" fill="#7FC952"/>
<path d="M287.751 122.544C251.097 120.026 223.371 91.7017 225.823 59.2797C239.807 85.8113 245.985 86.2357 282.64 88.7535C319.295 91.2713 397.744 71.0889 397.744 71.0889C397.744 71.0889 324.406 125.062 287.751 122.544Z" fill="#6EAC48"/>
<path d="M287.751 122.544C251.097 120.026 223.371 91.7017 225.823 59.2797C239.807 85.8113 245.985 86.2357 282.64 88.7535C319.295 91.2713 397.744 71.0889 397.744 71.0889C397.744 71.0889 324.406 125.062 287.751 122.544Z" stroke="black"/>
<path d="M117.39 57.407C153.291 61.1292 179.257 91.4085 175.388 125.038C171.519 158.667 139.279 182.912 103.379 179.189C67.4785 175.467 7.00578 107.58 7.00578 107.58C7.00578 107.58 81.49 53.6849 117.39 57.407Z" fill="#91CD6D"/>
<path d="M281.403 63.5981C190.156 22.3007 217.585 184.571 215.458 280" stroke="#78AA5A" stroke-width="20"/>
<path d="M121.114 122.426C189.976 123.585 207.173 144.47 213.911 204.334" stroke="#78AA5A" stroke-width="20"/>
</svg>
