<svg width="314" height="357" viewBox="0 0 314 357" fill="none" xmlns="http://www.w3.org/2000/svg">
<path d="M148.917 13.265C152.846 7.08778 161.863 7.08777 165.792 13.265L204.45 74.039C208.685 80.6963 203.902 89.4061 196.012 89.4061H118.697C110.807 89.4061 106.025 80.6963 110.26 74.039L148.917 13.265Z" fill="#ECA928"/>
<path d="M104.456 49.7141C104.719 41.1189 116.31 38.4633 122.568 45.5647L196.51 129.466C201.401 135.016 199.232 142.759 192.342 144.337L115.3 161.987C108.411 163.565 101.15 157.983 101.356 151.265L104.456 49.7141Z" fill="#ECA928"/>
<path d="M75.2817 113.652C70.8081 105.975 80.6288 97.9898 89.937 101.736L157.781 129.037C164.54 131.757 166.023 139.133 160.684 143.474L125.447 172.125C120.108 176.467 111.137 175.179 107.889 169.604L75.2817 113.652Z" fill="#ECA928"/>
<path d="M45.9359 177.734C37.8382 181.559 41.3857 193.784 51.2073 195.9L122.658 211.292C129.742 212.818 135.125 207.544 133.212 200.952L120.671 157.736C118.758 151.144 110.686 147.153 104.846 149.911L45.9359 177.734Z" fill="#ECA928"/>
<path d="M157.226 197.419C166.929 200.144 166.992 213.879 157.314 216.657L90.5167 235.836C84.1402 237.666 77.7711 232.888 77.7408 226.251L77.5675 188.26C77.5372 181.623 83.8626 176.81 90.2556 178.606L157.226 197.419Z" fill="#ECA928"/>
<path d="M26.8049 139.772C19.0911 134.219 25.8889 122.393 36.379 123.115L205.121 134.739C212.089 135.219 215.733 141.46 212.415 147.232L167.756 224.928C164.438 230.7 156.011 232.78 150.887 229.091L26.8049 139.772Z" fill="#ECA928"/>
<path d="M157 234.239V10.6797C157 9.00161 158.778 7.91989 160.268 8.69108C160.615 8.87046 160.908 9.13734 161.12 9.46525L179.424 37.8167C184.623 45.8706 196.004 46.9005 202.565 39.9109L203.464 39.1476C204.191 38.5305 205.114 38.1917 206.067 38.1917H206.603C207.415 38.1917 208.189 38.5405 208.727 39.1497C209.162 39.6418 209.413 40.2697 209.436 40.926L210.966 83.966C211.445 97.4453 224.856 106.596 237.582 102.125L240.465 101.112C241.015 100.919 241.593 100.821 242.175 100.821H243.428C244.461 100.821 245.418 101.362 245.95 102.247C246.512 103.182 246.511 104.352 245.946 105.286L242.952 110.233C237.737 118.85 244.305 129.785 254.361 129.229L300.005 126.708C301.146 126.645 302.262 127.062 303.083 127.858L303.376 128.143C303.984 128.732 304.327 129.543 304.327 130.39C304.327 131.407 303.833 132.361 303.001 132.948L275.803 152.14C263.482 160.833 264.848 179.515 278.301 186.325L283.396 188.904C283.51 188.962 283.636 188.992 283.765 188.992C284.216 188.992 284.582 189.358 284.582 189.81V191.861C284.582 192.076 284.563 192.293 284.486 192.494C284.174 193.318 283.246 194.688 281.291 195.378C279.78 195.911 266.605 198.661 254.073 201.218C244.733 203.123 238.005 211.327 238.005 220.86V233.982C238.005 234.927 237.835 235.865 237.503 236.75L237.295 237.305C237.095 237.839 236.798 238.332 236.421 238.76C235.803 239.459 234.991 239.957 234.088 240.191L233.459 240.353C232.292 240.655 231.064 240.641 229.904 240.312L180.366 226.276C176.613 225.213 172.585 225.803 169.294 227.898L167.891 228.792C166.89 229.429 166.065 230.306 165.489 231.343L164.844 232.505C164.68 232.8 164.594 233.132 164.594 233.47C164.594 233.931 164.434 234.378 164.14 234.734L163.932 234.987C163.7 235.267 163.418 235.502 163.1 235.678L162.832 235.827C162.161 236.199 161.407 236.394 160.641 236.394H160.038H159.155C158.74 236.394 158.333 236.274 157.985 236.048C157.371 235.651 157 234.97 157 234.239Z" fill="#D97C0F" stroke="#D97C0F" stroke-width="3"/>
<rect width="79.9213" height="16.1945" rx="8.09724" transform="matrix(0.900692 -0.434459 0.447808 0.89413 152.764 172.722)" fill="#A17E39"/>
<rect width="79.9213" height="16.1945" rx="8.09724" transform="matrix(-0.900692 -0.434459 -0.447808 0.89413 160.236 197.658)" fill="#A17E39"/>
<path d="M147.015 154.534C147.167 150.233 150.633 146.793 154.935 146.672V146.672C159.339 146.549 163.05 149.943 163.32 154.34L174.616 338.383C175.208 348.018 167.707 356.22 158.058 356.49V356.49C148.193 356.766 140.138 348.651 140.487 338.789L147.015 154.534Z" fill="#A27E39"/>
</svg>
