<svg height="511pt" viewBox="0 -40 511.99977 511" width="511pt" xmlns="http://www.w3.org/2000/svg"><path d="m308.167969 56.152344c-19.929688-19.929688-46.429688-30.90625-74.613281-30.90625-28.183594 0-54.683594 10.976562-74.613282 30.90625-41.140625 41.140625-41.140625 108.082031 0 149.222656 41.140625 41.144531 108.082032 41.144531 149.226563 0 41.140625-41.140625 41.140625-108.082031 0-149.222656zm0 0" fill="#e5f3fb"/><path d="m464.917969 432.441406h-245.617188l1.054688-12.496094c2.570312-30.410156 16.371093-58.601562 38.867187-79.378906 22.625-20.902344 52.0625-32.414062 82.886719-32.414062s60.257813 11.511718 82.886719 32.414062c22.496094 20.777344 36.296875 48.96875 38.867187 79.378906zm0 0" fill="#e86a36"/><path d="m463.863281 419.945312c-2.570312-30.410156-16.371093-58.601562-38.867187-79.378906-22.578125-20.859375-51.941406-32.363281-82.691406-32.410156v124.285156h122.613281zm0 0" fill="#ba5529"/><path d="m336.191406 214.042969c-16.113281 0-72.597656-2.730469-109.027344-39.164063-41.941406-41.941406-39.21875-110.464844-39.082031-113.363281l.589844-12.53125 12.53125-.589844c2.894531-.136719 71.421875-2.863281 113.363281 39.082031 41.945313 41.941407 39.21875 110.464844 39.085938 113.363282l-.59375 12.53125-12.53125.589844c-.378906.019531-1.898438.082031-4.335938.082031zm0 0" fill="#97de3d"/><path d="m336.191406 214.042969c2.4375 0 3.957032-.0625 4.335938-.082031l12.53125-.589844.589844-12.53125c.023437-.476563.113281-2.71875.066406-6.308594l-146.203125-146.207031c-3.589844-.042969-5.832031.046875-6.308594.070312l-12.53125.589844-.589844 12.53125c-.023437.472656-.113281 2.71875-.066406 6.308594l146.203125 146.203125c.710938.011718 1.371094.015625 1.972656.015625zm0 0" fill="#59c36a"/><path d="m511.820312 52.660156-.6875-11.179687-11.179687-.6875c-3.273437-.203125-80.660156-4.394531-127.246094 42.191406-14.480469 14.480469-24.054687 31.941406-30.367187 49.222656v89.882813l.046875.003906c.546875.035156 3.179687.179688 7.398437.179688 20.957032 0 81.070313-3.597657 119.84375-42.371094 46.582032-46.582032 42.394532-123.96875 42.191406-127.242188zm0 0" fill="#59c36a"/><path d="m511.820312 52.660156-.6875-11.179687-11.179687-.6875c-.480469-.03125-2.554687-.144531-5.878906-.171875l-151.730469 151.730468v29.738282l.042969.003906c.480469.027344 2.546875.144531 5.875.171875l163.730469-163.730469c-.027344-3.320312-.140626-5.394531-.171876-5.875zm0 0" fill="#97de3d"/><path d="m328.320312 171.5625h27.574219v197.097656h-27.574219zm0 0" fill="#fdbf00"/><path d="m342.34375 171.5625h13.550781v197.097656h-13.550781zm0 0" fill="#f6a313"/><path d="m88.636719 218.769531-76.867188 76.867188c-15.691406 15.691406-15.691406 41.222656 0 56.914062 7.597657 7.601563 17.707031 11.785157 28.457031 11.785157s20.855469-4.183594 28.457032-11.785157l76.707031-76.710937zm0 0" fill="#fa235e"/><path d="m29.65625 277.75-17.886719 17.886719c-15.691406 15.6875-15.691406 41.222656 0 56.914062 7.597657 7.597657 17.707031 11.785157 28.457031 11.785157s20.855469-4.1875 28.457032-11.785157l17.726562-17.730469zm0 0" fill="#ffda2d"/><path d="m325.664062 38.652344c-24.601562-24.601563-57.3125-38.152344-92.109374-38.152344 0 0 .003906 0 0 0-34.792969 0-67.507813 13.550781-92.109376 38.152344-47.226562 47.230468-50.53125 121.996094-9.921874 173.085937l-25.003907 25 21.058594 21.058594 25.003906-25c23.617188 18.773437 52.292969 28.167969 80.972657 28.167969 33.359374 0 66.714843-12.699219 92.109374-38.09375 50.789063-50.789063 50.789063-133.429688 0-184.21875zm-21.058593 163.160156c-39.175781 39.179688-102.921875 39.179688-142.101563 0-39.179687-39.175781-39.179687-102.921875 0-142.101562 18.976563-18.976563 44.210938-29.429688 71.050782-29.429688 26.839843 0 52.070312 10.453125 71.050781 29.429688 39.175781 39.179687 39.175781 102.925781 0 142.101562zm0 0" fill="#00607f"/><path d="m342 58.605469.34375 143.832031c28.640625-43.46875 28.527344-100.46875-.34375-143.832031zm0 0" fill="#00465f"/><path d="m65.851562 217.128906 21.058594-21.058594 81.332032 81.335938-21.058594 21.058594zm0 0" fill="#c91341"/></svg>