<svg width="218" height="227" viewBox="0 0 218 227" fill="none" xmlns="http://www.w3.org/2000/svg">
<path d="M38.6765 50.4965C52.1912 51.4338 65.9633 58.4511 76.1036 69.0952C86.2298 79.7244 92.5132 93.7295 91.4904 108.478C90.9321 116.528 91.1912 121.86 91.3671 125.244C91.4058 125.988 91.4366 126.588 91.4559 127.076C91.1417 126.997 90.802 126.909 90.4211 126.811C89.7894 126.647 89.0446 126.454 88.1161 126.227C84.3167 125.3 78.6418 124.129 70.2196 123.545C38.932 121.375 15.4882 93.213 17.4058 65.5642C17.7634 60.4082 17.8704 56.3283 17.9495 53.3133C17.9832 52.0298 18.0118 50.9392 18.0525 50.0408C18.1094 48.7869 18.1864 47.9872 18.2801 47.4713C18.3895 47.4805 18.5184 47.4939 18.6693 47.5134C19.4811 47.6183 20.5085 47.8295 21.9671 48.1292C22.1775 48.1724 22.3969 48.2175 22.626 48.2644C26.1691 48.9896 31.3073 49.9854 38.6765 50.4965ZM91.4318 128.785C91.4311 128.783 91.434 128.763 91.443 128.729C91.4371 128.769 91.4326 128.786 91.4318 128.785ZM93.0825 127.406C93.0942 127.405 93.1005 127.405 93.1007 127.406C93.1009 127.406 93.095 127.406 93.0825 127.406Z" fill="#549057" stroke="black" stroke-width="6"/>
<path d="M20.5002 69C20.3335 68.8333 20.1002 66.9 20.5002 60.5L72.0002 120.5L67.5002 120L64.0002 119.5L59.5002 118.5L56.5002 117.5L54.0002 116.5L53.0002 116L52.0002 115.5L50.0002 114.5L45.5002 112L40.0002 108L37.0002 105.5L35.0002 103.5L31.0002 99L28.5002 95.5L26.5002 92L24.5002 88L22.5002 81.5L21.5002 78L21.0002 75.5L20.5002 73V70.5V69Z" fill="#3B5D3C" stroke="black"/>
<path d="M104.354 136.097C59.5004 112.996 40.044 94.3546 18.3544 48.0967" stroke="black" stroke-width="6"/>
<path d="M106.397 93.2555C106.375 64.5495 105.5 226.02 105.5 226.02" stroke="black" stroke-width="6"/>
<line x1="105.096" y1="214.651" x2="88.0963" y2="205.651" stroke="black" stroke-width="6"/>
<path d="M91.5 206.5C91.5 206.5 85.5914 163.021 66 148.5C46.5422 134.078 4.5 141.5 4.5 141.5" stroke="black" stroke-width="6"/>
<path d="M91.5 206.5C91.5 206.5 77.8526 173.379 58.2843 158.827C38.8494 144.375 4.5 141.5 4.5 141.5" stroke="black" stroke-width="6"/>
<path d="M7 142.5C7 144.709 5.433 146.5 3.5 146.5C2 145.5 0 144.709 0 142.5C0 140.291 1.567 138.5 3.5 138.5C5.433 138.5 7 140.291 7 142.5Z" fill="black"/>
<path d="M210.965 112.527C210.965 112.527 170.178 127.042 165.744 129.353C161.311 131.663 117.421 161.959 117.421 161.959" stroke="black" stroke-width="6"/>
<path d="M213.983 111.024C213.983 111.024 172.22 97.5646 150.659 108.958C129.245 120.274 117.771 161.395 117.771 161.395" stroke="black" stroke-width="6"/>
<path d="M88.7139 206.01C88.7139 206.01 58.0002 175.5 54.0002 172.5C50.0002 169.5 3.71386 143.01 3.71386 143.01" stroke="black" stroke-width="6"/>
<path d="M120.169 157.119C122.201 157.874 123.303 159.954 122.63 161.767C121.188 162.831 119.764 164.436 117.732 163.682C115.7 162.927 114.599 160.846 115.272 159.034C115.944 157.222 118.137 156.365 120.169 157.119Z" fill="black"/>
<line x1="106.756" y1="169.659" x2="120.756" y2="159.659" stroke="black" stroke-width="6"/>
<path d="M217.5 111.5C217 113 213.523 115.136 211.5 115.5C209.477 115.864 207.769 113.216 207.972 111.005C208.174 108.793 210.289 107.179 212.694 107.399C215.1 107.619 217.702 109.288 217.5 111.5Z" fill="black"/>
<path d="M106.198 100.916C106.231 83.1877 106.275 70.9115 117.753 72.1324" stroke="black" stroke-width="6"/>
<path d="M144.708 58.6076C141.455 65.156 136.651 70.0228 131.649 72.6656C126.642 75.3111 121.674 75.6369 117.689 73.6567C116.794 73.2118 116.381 72.7781 116.177 72.4559C115.981 72.1467 115.85 71.7403 115.861 71.1124C115.886 69.684 116.629 67.6084 118.213 64.7415C119.515 62.3843 121.185 59.8295 123.012 57.0362C123.35 56.5192 123.693 55.9939 124.041 55.4602C126.225 52.1054 128.527 48.4743 130.363 44.7797C132.185 41.1122 134.05 36.3669 135.932 31.5471C136.007 31.3542 136.083 31.1612 136.158 30.968C137.992 26.2714 139.86 21.4859 141.808 17.2574C143.865 12.7951 145.875 9.26716 147.816 7.17671C148.5 6.44026 149.087 5.98058 149.568 5.70975C148.849 14.2323 148.83 21.8801 148.813 28.6674C148.807 31.1059 148.801 33.4333 148.763 35.6503C148.605 44.9128 147.889 52.2061 144.708 58.6076Z" fill="#549157" stroke="black" stroke-width="6"/>
<path d="M84.5 191L86 194L84.5 185.5L77 164.5L73 158L68 152L62.5 148L53.5 144.5L44 143L29.5 142H24.5H20.5L18 143L26 144.5L30.5 145.5L38.5 148L44 150L48.5 152L52.5 154L55.5 156L58 157.5L58.5 158L59.5 158.5L60 159L60.5 159.5L62.3294 160.872C62.443 160.957 62.5504 161.05 62.6508 161.151L63.5 162L67 165.5L70.5 169.5L73 173L75.5 176.5L77 179L78.5 181L80 183.5L82 187L83 188.5L84.5 191Z" fill="#3B5D3C" stroke="black"/>
<path d="M81.5 194.5L87.5 200.5L86 196.5L84.5 193.5L81.5 188.5L79 184.5L77 181.5L74 177L71 173L68.5 170L66.5 167.5L64 165L62 163L59 160.5L55.5 158L52.5 156L45.5 152.5L39.5 150L36.5 149L29 146.5L23.5 145L16.5 143.5L13.5 143L11 143.5L16.5 146.5L20 148.5L23.5 150.5L27 152.5L30.5 154.5L36.5 158L45 163L52.5 167.5L56.5 170L57.5 171L60 173.5L68.5 181.5L75 188L81.5 194.5Z" fill="#549057" stroke="black"/>
<path d="M139 143L123.5 154L128.5 142.5L133.5 132.5L139 124L143.5 118.5L148.5 114L155 110.5L160 109L163.5 108.5L167.5 108L171.5 107.5H177.5L181.5 108L185 108.5L189 109L192.5 109.5L198 110.5L204.5 111.5L194 115L187 117.5L180.5 120L174 122.5L167 125L164.5 126L162 127.5L157.5 130.5L153 133.5L150 135.5L139 143Z" fill="#549157" stroke="black"/>
</svg>
