<svg width="248" height="310" viewBox="0 0 248 310" fill="none" xmlns="http://www.w3.org/2000/svg">
<path d="M126.777 258.466C120.442 258.538 113.98 258.738 107.497 258.939C55.6172 260.546 2.35714 262.196 1.78361 198.752C8.08675 132.335 77.7972 8.05737 124.44 0C124.888 49.4687 125.021 64.2626 125.147 78.1421C125.256 90.2757 125.359 101.71 125.66 135.002C125.949 166.97 126.007 173.314 126.07 180.319C126.148 188.954 126.236 198.593 126.777 258.466Z" fill="#719B3C"/>
<path d="M126.777 258.466C120.442 258.538 113.98 258.738 107.497 258.939C55.6172 260.546 2.35714 262.196 1.78361 198.752C8.08675 132.335 77.7972 8.05737 124.44 0C124.888 49.4687 125.021 64.2626 125.147 78.1421C125.256 90.2757 125.359 101.71 125.66 135.002C125.949 166.97 126.007 173.314 126.07 180.319C126.148 188.954 126.236 198.593 126.777 258.466Z" stroke="black"/>
<path d="M126.786 211.46C122.908 211.504 118.953 211.652 114.984 211.801C83.2266 212.991 50.6241 214.213 50.1565 162.482C53.8933 108.345 96.3414 7.17848 124.881 0.717285C125.246 41.0521 125.355 53.1144 125.457 64.4312C125.547 74.3245 125.631 83.6479 125.876 110.792C126.112 136.858 126.159 142.03 126.21 147.742C126.274 154.782 126.345 162.642 126.786 211.46Z" fill="#52C988"/>
<path d="M126.786 211.46C122.908 211.504 118.953 211.652 114.984 211.801C83.2266 212.991 50.6241 214.213 50.1565 162.482C53.8933 108.345 96.3414 7.17848 124.881 0.717285C125.246 41.0521 125.355 53.1144 125.457 64.4312C125.547 74.3245 125.631 83.6479 125.876 110.792C126.112 136.858 126.159 142.03 126.21 147.742C126.274 154.782 126.345 162.642 126.786 211.46Z" stroke="black"/>
<path d="M121.213 259.532C127.548 259.604 134.01 259.805 140.493 260.006C192.373 261.618 245.633 263.272 246.209 199.565C239.908 132.875 170.203 8.0884 123.56 0C123.111 49.6727 122.976 64.5277 122.85 78.4644C122.74 90.648 122.637 102.13 122.335 135.559C122.044 167.659 121.987 174.029 121.923 181.063C121.845 189.733 121.757 199.412 121.213 259.532Z" fill="#2A6D49"/>
<path d="M121.213 259.532C127.548 259.604 134.01 259.805 140.493 260.006C192.373 261.618 245.633 263.272 246.209 199.565C239.908 132.875 170.203 8.0884 123.56 0C123.111 49.6727 122.976 64.5277 122.85 78.4644C122.74 90.648 122.637 102.13 122.335 135.559C122.044 167.659 121.987 174.029 121.923 181.063C121.845 189.733 121.757 199.412 121.213 259.532Z" stroke="black"/>
<path d="M121.321 171.161C124.549 171.198 127.841 171.319 131.145 171.441C157.58 172.414 184.719 173.414 185.098 131.4C181.978 87.4294 146.626 5.25426 122.868 0C122.572 32.7591 122.484 42.5559 122.4 51.7471C122.328 59.7822 122.259 67.3545 122.06 89.4008C121.869 110.571 121.831 114.772 121.789 119.41C121.737 125.129 121.679 131.512 121.321 171.161Z" fill="#3C9464"/>
<path d="M121.321 171.161C124.549 171.198 127.841 171.319 131.145 171.441C157.58 172.414 184.719 173.414 185.098 131.4C181.978 87.4294 146.626 5.25426 122.868 0C122.572 32.7591 122.484 42.5559 122.4 51.7471C122.328 59.7822 122.259 67.3545 122.06 89.4008C121.869 110.571 121.831 114.772 121.789 119.41C121.737 125.129 121.679 131.512 121.321 171.161Z" stroke="black"/>
<rect x="113.218" y="87.3413" width="18.8696" height="222.659" fill="#AA7F2D"/>
</svg>
