<svg width="203" height="173" viewBox="0 0 203 173" fill="none" xmlns="http://www.w3.org/2000/svg">
<path d="M10.2344 140.852C4.33552 130.617 28.5107 115.043 64.1271 104.985C99.7435 94.9262 133.314 94.1927 139.213 104.428C119.06 110.119 110.34 112.582 74.7237 122.64C39.1073 132.698 34.4179 134.022 10.2344 140.852Z" fill="#3B5D3C"/>
<path d="M138.669 103.969C140.274 104.861 116.329 120.487 80.6033 130.792C44.8777 141.096 9.39472 145.097 9.89907 140.064C15.0358 131.92 24.8895 128.359 32.0144 124.972C39.8013 121.271 60.8826 115.437 67.2689 113.606C73.6553 111.775 137.064 103.077 138.669 103.969Z" fill="#549157"/>
<path d="M92.1662 74.1184C99.052 64.4192 125.556 76.3627 152.343 100.188C179.129 124.014 196.056 150.699 189.17 160.398C174.013 146.917 167.455 141.084 140.668 117.258C113.881 93.4327 110.354 90.2958 92.1662 74.1184Z" fill="#3B5D3C"/>
<path d="M189.343 159.738C189.27 161.461 162.829 149.729 135.755 125.934C108.681 102.14 87.7212 75.494 92.7532 73.4672C102.984 73.6677 111.136 79.8832 117.802 83.9847C125.089 88.4672 140.83 102.627 145.659 106.886C150.488 111.145 189.416 158.014 189.343 159.738Z" fill="#549157"/>
<path d="M165.153 14.7692C156.612 6.25665 132.632 22.0834 110.516 49.6704C88.4001 77.2574 76.524 106.158 85.0644 114.671C97.5782 99.061 102.993 92.3069 125.109 64.7199C147.224 37.1329 150.136 33.5007 165.153 14.7692Z" fill="#3B5D3C"/>
<path d="M84.7736 114.046C85.1565 115.735 109.114 100.125 131.519 72.5252C153.923 44.9251 169.783 15.4466 164.456 14.2168C154.403 15.9776 147.486 23.352 141.652 28.415C135.276 33.9485 122.308 50.3169 118.315 55.2545C114.321 60.1922 84.3907 112.358 84.7736 114.046Z" fill="#549157"/>
<path d="M158.307 99.6569C149.649 106.216 135.735 108.342 123.086 109.122C118.924 109.378 115.093 109.483 111.688 109.576C109.935 109.624 108.294 109.669 106.781 109.73C105.112 109.797 103.553 109.886 102.234 110.037C102.231 109.684 102.232 109.306 102.237 108.904C102.287 105.215 102.715 99.809 103.932 93.9181C105.151 88.0173 107.14 81.7304 110.254 76.2198C113.374 70.7014 117.525 66.1294 122.97 63.3933C134.982 57.3571 148.245 53.2107 159.245 51.1807C164.75 50.1647 169.587 49.6978 173.353 49.7564C175.236 49.7857 176.77 49.9455 177.947 50.1988C178.409 50.2981 178.786 50.4055 179.09 50.5118C179.362 54.6903 178.607 63.0365 175.796 72.1752C172.661 82.3653 167.138 92.9665 158.307 99.6569Z" fill="white" stroke="black" stroke-width="6"/>
<path d="M90.9843 60.3021C100.069 66.3873 105.788 78.2659 109.769 89.3347C111.08 92.978 112.148 96.3659 113.097 99.3754C113.586 100.926 114.043 102.376 114.486 103.708C114.966 105.155 115.441 106.5 115.922 107.624C115.573 107.709 115.202 107.796 114.807 107.886C110.914 108.764 105.118 109.734 98.6149 110.123C92.1011 110.512 84.9857 110.312 78.4036 108.914C71.8123 107.514 65.9501 104.955 61.6978 100.777C52.3378 91.5799 44.6557 80.7965 39.7678 71.5017C37.3214 66.8497 35.6204 62.6562 34.7405 59.2868C34.3005 57.6017 34.0855 56.1966 34.0578 55.0881C34.0476 54.678 34.0636 54.3346 34.095 54.0501C38.4364 52.7688 47.38 51.3638 57.6667 51.5828C69.1723 51.8276 81.7208 54.0969 90.9843 60.3021Z" fill="white" stroke="black" stroke-width="6"/>
<path d="M80.9182 124.108C80.7652 119.34 82.3398 114.295 84.9819 109.219C87.6154 104.16 91.2052 99.2677 94.8307 94.8532C97.2498 91.9077 99.5918 89.2816 101.675 86.946C102.749 85.7412 103.754 84.6138 104.666 83.5597C105.774 82.2788 106.781 81.0615 107.519 79.9937C107.961 80.2995 108.449 80.6462 108.977 81.0331C112.23 83.4181 116.762 87.1462 121.22 91.7051C125.69 96.2763 129.989 101.586 132.879 107.128C135.774 112.679 137.13 118.216 136.135 123.402C133.869 135.205 129.139 146.664 123.961 155.284C121.371 159.596 118.718 163.116 116.276 165.591C114.294 167.6 112.684 168.683 111.541 169.141C107.68 166.745 100.571 160.834 94.1126 152.985C87.0412 144.391 81.2374 134.059 80.9182 124.108ZM104.991 78.4166C104.99 78.4162 104.998 78.4192 105.015 78.4268C105 78.4208 104.991 78.4171 104.991 78.4166Z" fill="white" stroke="black" stroke-width="6"/>
<path d="M86.2119 76.3872L108.326 82.9778" stroke="#F9FC57" stroke-width="7"/>
<path d="M108.563 82.6692L130.914 76.7932" stroke="#F9FC57" stroke-width="7"/>
<path d="M129.602 96.2729L112.162 82.1315" stroke="#F9FC57" stroke-width="7"/>
<path d="M108.996 103.648L108.563 82.2631" stroke="#F9FC57" stroke-width="7"/>
<path d="M86.2119 94.9995L105.206 82.669" stroke="#F9FC57" stroke-width="7"/>
<path d="M109.192 84.5474L108.563 63.1664" stroke="#F9FC57" stroke-width="7"/>
</svg>
