<svg width="774" height="229" viewBox="0 0 774 229" fill="none" xmlns="http://www.w3.org/2000/svg">
<path d="M261.212 66.206C272.281 76.811 274.694 92.5641 266.604 101.392C258.513 110.219 242.981 108.778 231.913 98.1731C220.844 87.5681 214.69 51.6514 214.69 51.6514C214.69 51.6514 250.144 55.601 261.212 66.206Z" fill="#91CD6D"/>
<path d="M270.186 69.8871C277.796 80.3097 275.317 95.1864 264.65 103.115C269.717 92.3707 268.434 90.6138 260.824 80.1912C253.214 69.7686 228.956 54.2303 228.956 54.2303C228.956 54.2303 262.575 59.4645 270.186 69.8871Z" fill="#7AA85E"/>
<path d="M270.186 69.8871C277.796 80.3097 275.317 95.1864 264.65 103.115C269.717 92.3707 268.434 90.6138 260.824 80.1912C253.214 69.7686 228.956 54.2303 228.956 54.2303C228.956 54.2303 262.575 59.4645 270.186 69.8871Z" stroke="black"/>
<rect width="5.9567" height="37.0334" rx="2.97835" transform="matrix(-0.734507 0.680848 0.659898 0.74952 243.202 73.5559)" fill="#699E26"/>
<rect width="1.71679" height="16.2107" rx="0.858397" transform="matrix(-0.230515 -0.976207 -0.970245 0.228903 252.291 85.5648)" fill="#699E26"/>
<rect width="1.74669" height="15.9328" rx="0.873344" transform="matrix(0.991903 -0.0901268 0.0881249 1.00011 254.363 78.8861)" fill="#699E26"/>
<path d="M207.993 120.728C112.749 79.6475 70.0427 86.33 3.43173 124.759M207.993 120.728C112.749 79.6475 70.0427 86.33 3.43173 124.759" stroke="#699E26" stroke-width="5"/>
<path d="M566.008 108C471.969 66.8956 429.841 73.5667 364.175 111.977M566.008 108C471.969 66.8956 429.841 73.5667 364.175 111.977" stroke="#699E26" stroke-width="5"/>
<path d="M566.008 108C661.252 149.081 703.958 142.398 770.569 103.969M566.008 108C661.252 149.081 703.958 142.398 770.569 103.969" stroke="#699E26" stroke-width="5"/>
<path d="M175.072 107.761C269.714 148.854 312.131 142.177 378.269 103.757M175.072 107.761C269.714 148.854 312.131 142.177 378.269 103.757" stroke="#699E26" stroke-width="5"/>
<path d="M321.28 129.727C310.375 106.68 298.821 99.5074 263.787 101.917" stroke="#699E26" stroke-width="5"/>
<path d="M517.49 69.2235C502.369 71.9359 488.272 64.6256 486.003 52.8955C483.734 41.1654 494.152 29.4575 509.272 26.7451C524.392 24.0327 556.921 40.1737 556.921 40.1737C556.921 40.1737 532.61 66.5111 517.49 69.2235Z" fill="#91CD6D"/>
<path d="M509.182 74.313C496.27 74.3372 485.794 63.5874 485.783 50.3026C491.395 60.7156 493.572 60.7115 506.484 60.6873C519.396 60.6632 546.344 50.1892 546.344 50.1892C546.344 50.1892 522.094 74.2888 509.182 74.313Z" fill="#7AA85E"/>
<path d="M509.182 74.313C496.27 74.3372 485.794 63.5874 485.783 50.3026C491.395 60.7156 493.572 60.7115 506.484 60.6873C519.396 60.6632 546.344 50.1892 546.344 50.1892C546.344 50.1892 522.094 74.2888 509.182 74.313Z" stroke="black"/>
<rect width="5.9567" height="37.0334" rx="2.97835" transform="matrix(-0.109157 -0.994025 -0.995687 0.0927807 522.322 50.3439)" fill="#699E26"/>
<rect width="1.71679" height="16.2107" rx="0.858397" transform="matrix(0.921833 0.387586 0.394537 -0.91888 507.254 50.63)" fill="#699E26"/>
<rect width="1.74669" height="15.9328" rx="0.873344" transform="matrix(-0.518959 0.854799 -0.856143 -0.516739 511.385 56.2318)" fill="#699E26"/>
<path d="M489.524 50.6266C458.152 44.4534 442.202 50.5309 418.059 86.6354" stroke="#699E26" stroke-width="5"/>
<path d="M472.305 144.348C458.636 137.337 443.019 140.211 437.422 150.766C431.825 161.322 438.369 175.563 452.037 182.573C465.706 189.584 501.531 183.65 501.531 183.65C501.531 183.65 485.973 151.359 472.305 144.348Z" fill="#91CD6D"/>
<path d="M465.846 137.054C453.504 133.259 440.345 140.48 436.454 153.182C444.863 144.863 446.944 145.502 459.286 149.297C471.627 153.092 494.34 170.981 494.34 170.981C494.34 170.981 478.188 140.849 465.846 137.054Z" fill="#7AA85E"/>
<path d="M465.846 137.054C453.504 133.259 440.345 140.48 436.454 153.182C444.863 144.863 446.944 145.502 459.286 149.297C471.627 153.092 494.34 170.981 494.34 170.981C494.34 170.981 478.188 140.849 465.846 137.054Z" stroke="black"/>
<rect width="5.9567" height="37.0334" rx="2.97835" transform="matrix(-0.394766 0.918782 -0.925155 -0.37959 471.411 163.816)" fill="#699E26"/>
<rect width="1.71679" height="16.2107" rx="0.858397" transform="matrix(0.994846 -0.101399 0.108909 0.994052 457.084 159.141)" fill="#699E26"/>
<rect width="1.74669" height="15.9328" rx="0.873344" transform="matrix(-0.246623 -0.969112 -0.969748 0.244108 462.671 154.99)" fill="#699E26"/>
<path d="M440.464 154.315C408.657 151.054 395.178 140.583 382.634 99.0002" stroke="#699E26" stroke-width="5"/>
<path d="M241.969 169.957C232.504 159.627 218.099 156.57 209.795 163.13C201.49 169.69 202.432 183.383 211.898 193.713C221.364 204.044 254.191 211.583 254.191 211.583C254.191 211.583 251.435 180.288 241.969 169.957Z" fill="#91CD6D"/>
<path d="M238.81 161.876C229.427 154.586 215.706 155.868 208.164 164.739C218.154 160.942 219.736 162.171 229.119 169.461C238.502 176.751 252.173 198.931 252.173 198.931C252.173 198.931 248.193 169.166 238.81 161.876Z" fill="#7AA85E"/>
<path d="M238.81 161.876C229.427 154.586 215.706 155.868 208.164 164.739C218.154 160.942 219.736 162.171 229.119 169.461C238.502 176.751 252.173 198.931 252.173 198.931C252.173 198.931 248.193 169.166 238.81 161.876Z" stroke="black"/>
<rect width="5.2162" height="34.1186" rx="2.6081" transform="matrix(-0.734497 0.688315 -0.729412 -0.676134 234.778 185.295)" fill="#699E26"/>
<rect width="1.57415" height="14.2697" rx="0.787075" transform="matrix(0.9714 0.283904 -0.265832 0.950041 223.975 176.616)" fill="#699E26"/>
<rect width="1.54644" height="14.5287" rx="0.773222" transform="matrix(0.120981 -0.975382 -1.00467 -0.150244 230.158 175.199)" fill="#699E26"/>
<path d="M210.064 165.787C189.052 155.068 182.633 144.581 185.362 114" stroke="#699E26" stroke-width="5"/>
<path d="M621.299 168.346C636.11 164.27 650.813 170.269 654.139 181.744C657.465 193.22 648.155 205.826 633.344 209.901C618.532 213.977 584.671 200.859 584.671 200.859C584.671 200.859 606.488 172.421 621.299 168.346Z" fill="#91CD6D"/>
<path d="M629.11 162.522C641.966 161.325 653.376 171.078 654.594 184.306C648.059 174.447 645.892 174.649 633.035 175.846C620.179 177.044 594.294 189.924 594.294 189.924C594.294 189.924 616.254 163.72 629.11 162.522Z" fill="#7AA85E"/>
<path d="M629.11 162.522C641.966 161.325 653.376 171.078 654.594 184.306C648.059 174.447 645.892 174.649 633.035 175.846C620.179 177.044 594.294 189.924 594.294 189.924C594.294 189.924 616.254 163.72 629.11 162.522Z" stroke="black"/>
<rect width="5.9567" height="37.0334" rx="2.97835" transform="matrix(0.199053 0.979989 0.983132 -0.182895 618.203 187.586)" fill="#699E26"/>
<rect width="1.71679" height="16.2107" rx="0.858397" transform="matrix(-0.953246 -0.302196 -0.309387 0.950936 633.182 185.932)" fill="#699E26"/>
<rect width="1.74669" height="15.9328" rx="0.873344" transform="matrix(0.439117 -0.89843 0.899566 0.436785 628.56 180.729)" fill="#699E26"/>
<path d="M650.217 184.855C682.096 182.389 695.832 172.257 709.408 131" stroke="#699E26" stroke-width="6"/>
<path d="M83.5002 48C106.183 41.9893 126.668 68.2125 146.132 99.4457" stroke="#699E26" stroke-width="5.5"/>
<path d="M70.5878 82.4698C83.6246 76.6014 91.0072 61.9802 87.0772 49.8123C83.1472 37.6444 69.3928 32.5376 56.3559 38.4059C43.3191 44.2742 25.9309 77.3363 25.9309 77.3363C25.9309 77.3363 57.5509 88.3381 70.5878 82.4698Z" fill="#91CD6D"/>
<path d="M79.4965 82.5925C89.5177 75.4497 92.425 59.6393 85.9902 47.2789C86.6899 60.077 85.0007 61.281 74.9795 68.4238C64.9584 75.5666 38.9883 80.7805 38.9883 80.7805C38.9883 80.7805 69.4753 89.7353 79.4965 82.5925Z" fill="#7AA85E"/>
<path d="M79.4965 82.5925C89.5177 75.4497 92.425 59.6393 85.9902 47.2789C86.6899 60.077 85.0007 61.281 74.9795 68.4238C64.9584 75.5666 38.9883 80.7805 38.9883 80.7805C38.9883 80.7805 69.4753 89.7353 79.4965 82.5925Z" stroke="black"/>
<rect width="6.19227" height="35.6657" rx="3.09614" transform="matrix(-0.382364 -0.947516 0.848183 -0.484136 57.6855 67.5936)" fill="#699E26"/>
<rect width="1.66675" height="16.7342" rx="0.833375" transform="matrix(-0.54244 0.898181 -0.727995 -0.615705 69.5044 59.4982)" fill="#699E26"/>
<rect width="1.78883" height="15.6092" rx="0.894415" transform="matrix(0.797635 0.495008 0.421631 -0.975471 69.0195 66.9999)" fill="#699E26"/>
</svg>
