<svg width="249" height="249" viewBox="0 0 249 249" fill="none" xmlns="http://www.w3.org/2000/svg">
<path d="M66 77.5C66 50.438 87.938 28.5 115 28.5H198C225.062 28.5 247 50.438 247 77.5C247 104.562 225.062 126.5 198 126.5H115C87.938 126.5 66 104.562 66 77.5Z" fill="#4A9CCA"/>
<rect y="88" width="181" height="98" rx="49" fill="#4A9CCA"/>
<rect x="66" y="151" width="181" height="98" rx="49" fill="#4A9CCA"/>
<rect x="164" y="124" width="85" height="28" rx="14" fill="white"/>
<rect x="164" y="124" width="85" height="28" rx="14" stroke="black"/>
<path d="M49.7277 25.0424C30.6277 33.7827 66.9849 -7.04471 79.7506 27.7358C81.067 31.3224 81.438 35.1631 81.473 38.9834C81.6735 60.8213 82.3183 138 81.419 138C80.3716 138 56.7935 138 53.6804 138C50.5674 138 69.7456 15.882 49.7277 25.0424Z" fill="#C5F588"/>
<path d="M33.5439 53.1338C12.9366 63.1052 50.3627 29.4806 66.1925 49.8345C69.5255 54.12 70.0546 59.8145 70.1237 65.243C70.3851 85.7906 70.9567 138 70.0142 138C68.8407 138 42.4245 138 38.9367 138C35.4489 138 56.0858 42.2261 33.5439 53.1338Z" fill="#9EE346"/>
<path d="M17.3329 74.0618C-1.48496 78.9002 26.163 55.0045 41.4582 66.246C46.7307 70.1212 47.4447 77.4262 47.5418 83.9689C47.8077 101.878 48.2348 137.799 47.383 137.799C46.2483 137.799 20.7053 137.799 17.3329 137.799C13.9604 137.799 39.019 68.4859 17.3329 74.0618Z" fill="#C5F588"/>
<path d="M136.129 97.4814C148.854 100.185 133.955 88.7717 122.174 90.8287C114.56 92.158 112.92 101.495 112.799 109.223C112.613 121.188 112.451 138 113.013 138C113.886 138 133.534 138 136.129 138C138.723 138 119.447 93.9367 136.129 97.4814Z" fill="#C5F588"/>
<path d="M122.798 11.7533C152.636 26.5507 98.9188 -23.0268 80.0856 14.1359C77.8939 18.4608 77.3198 23.3957 77.2631 28.244C76.9641 53.8035 76.0776 137.884 77.3513 137.884C78.8534 137.884 112.665 137.884 117.13 137.884C121.594 137.884 91.3442 -3.84554 122.798 11.7533Z" fill="#89CA37"/>
<path d="M128.411 57.8427C146.907 68.1452 114.063 35.3569 98.4862 61.5657C82.9089 87.7746 97.5233 138 98.4862 138C99.449 138 121.124 138 123.986 138C126.847 138 109.915 47.5403 128.411 57.8427Z" fill="#9EE346"/>
<line x1="5" y1="143" x2="148" y2="143" stroke="#997124" stroke-width="10"/>
<line x1="66" y1="201" x2="125" y2="201" stroke="#88E3EF" stroke-width="10"/>
<path d="M122.007 200.633C122.007 205.971 121.728 206 124.671 206C127.614 206 130 203.769 130 201.017C130 198.266 127.614 196.035 124.671 196.035C121.728 196.035 122.007 195.294 122.007 200.633Z" fill="#88E3EF"/>
<line x1="117" y1="227" x2="176" y2="227" stroke="#88E3EF" stroke-width="10"/>
<path d="M173.007 226.633C173.007 231.971 172.728 232 175.671 232C178.614 232 181 229.769 181 227.017C181 224.266 178.614 222.035 175.671 222.035C172.728 222.035 173.007 221.294 173.007 226.633Z" fill="#88E3EF"/>
<path d="M117.993 226.633C117.993 231.971 118.272 232 115.329 232C112.386 232 110 229.769 110 227.017C110 224.266 112.386 222.035 115.329 222.035C118.272 222.035 117.993 221.294 117.993 226.633Z" fill="#88E3EF"/>
<line x1="164" y1="173" x2="223" y2="173" stroke="#88E3EF" stroke-width="10"/>
<path d="M220.007 172.633C220.007 177.971 219.728 178 222.671 178C225.614 178 228 175.769 228 173.017C228 170.266 225.614 168.035 222.671 168.035C219.728 168.035 220.007 167.294 220.007 172.633Z" fill="#88E3EF"/>
<path d="M164.993 172.633C164.993 177.971 165.272 178 162.329 178C159.386 178 157 175.769 157 173.017C157 170.266 159.386 168.035 162.329 168.035C165.272 168.035 164.993 167.294 164.993 172.633Z" fill="#88E3EF"/>
<line x1="186" y1="72" x2="233.016" y2="72" stroke="#88E3EF" stroke-width="10"/>
<path d="M230.631 71.6329C230.631 76.9713 230.409 77 232.754 77C235.099 77 237 74.7692 237 72.0175C237 69.2657 235.099 67.0349 232.754 67.0349C230.409 67.0349 230.631 66.2945 230.631 71.6329Z" fill="#88E3EF"/>
<path d="M186.791 71.6329C186.791 76.9713 187.013 77 184.668 77C182.323 77 180.422 74.7692 180.422 72.0175C180.422 69.2657 182.323 67.0349 184.668 67.0349C187.013 67.0349 186.791 66.2945 186.791 71.6329Z" fill="#88E3EF"/>
<line x1="158" y1="45" x2="217" y2="45" stroke="#88E3EF" stroke-width="10"/>
<path d="M214.007 44.6329C214.007 49.9713 213.728 50 216.671 50C219.614 50 222 47.7692 222 45.0175C222 42.2657 219.614 40.0349 216.671 40.0349C213.728 40.0349 214.007 39.2945 214.007 44.6329Z" fill="#88E3EF"/>
<path d="M158.993 44.6329C158.993 49.9713 159.272 50 156.329 50C153.386 50 151 47.7692 151 45.0175C151 42.2657 153.386 40.0349 156.329 40.0349C159.272 40.0349 158.993 39.2945 158.993 44.6329Z" fill="#88E3EF"/>
</svg>
